<?xml version="1.0" encoding="UTF-8" standalone="no"?>
<!-- Created with Inkscape (http://www.inkscape.org/) -->

<svg
   xmlns:dc="http://purl.org/dc/elements/1.1/"
   xmlns:cc="http://creativecommons.org/ns#"
   xmlns:rdf="http://www.w3.org/1999/02/22-rdf-syntax-ns#"
   xmlns:svg="http://www.w3.org/2000/svg"
   xmlns="http://www.w3.org/2000/svg"
   xmlns:sodipodi="http://sodipodi.sourceforge.net/DTD/sodipodi-0.dtd"
   xmlns:inkscape="http://www.inkscape.org/namespaces/inkscape"
   id="svg2"
   version="1.1"
   inkscape:version="0.48.3.1 r9886"
   width="853.56946"
   height="1341.4631"
   sodipodi:docname="Hyperbola_(PSF).png">
  <metadata
     id="metadata8">
    <rdf:RDF>
      <cc:Work
         rdf:about="">
        <dc:format>image/svg+xml</dc:format>
        <dc:type
           rdf:resource="http://purl.org/dc/dcmitype/StillImage" />
        <dc:title></dc:title>
      </cc:Work>
    </rdf:RDF>
  </metadata>
  <defs
     id="defs6" />
  <sodipodi:namedview
     pagecolor="#ffffff"
     bordercolor="#666666"
     borderopacity="1"
     objecttolerance="10"
     gridtolerance="10"
     guidetolerance="10"
     inkscape:pageopacity="0"
     inkscape:pageshadow="2"
     inkscape:window-width="1314"
     inkscape:window-height="766"
     id="namedview4"
     showgrid="false"
     fit-margin-top="5"
     fit-margin-left="5"
     fit-margin-right="5"
     fit-margin-bottom="5"
     inkscape:zoom="0.48056789"
     inkscape:cx="656.85683"
     inkscape:cy="587.77057"
     inkscape:window-x="52"
     inkscape:window-y="0"
     inkscape:window-maximized="1"
     inkscape:current-layer="svg2" />
  <path
     style="fill:#000000"
     d="m 528.13792,1333.9076 c -2.6085,-1.539 -5.7585,-3.7741 -7,-4.967 -4.843,-4.6532 -11.4994,-10.0189 -16.7573,-13.5078 -3.025,-2.0073 -10.4556,-6.9136 -16.5124,-10.9028 -17.3479,-11.4259 -35.5623,-24.5601 -48.3228,-34.8451 -3.1334,-2.5255 -9.7398,-7.4411 -14.6809,-10.9235 -4.9411,-3.4825 -10.6919,-7.846 -12.7794,-9.6967 -5.7536,-5.1009 -23.8416,-18.3896 -26.3072,-19.327 -1.1963,-0.4548 -3.6876,-2.1181 -5.5362,-3.6963 -3.9776,-3.3957 -13.4216,-10.2646 -14.1126,-10.2646 -0.266,0 -3.5034,-2.025 -7.1943,-4.5 -3.6909,-2.475 -7.6232,-4.5 -8.7386,-4.5 -1.9392,0 -1.9987,0.4047 -1.3601,9.25 1.3847,19.1819 3.6712,42.377 4.5099,45.75 0.4786,1.925 1.1504,10.475 1.4928,19 0.3424,8.525 1.0582,20.585 1.5907,26.8 0.9192,10.7303 0.3997,15.0557 -1.834,15.2679 -0.3932,0.037 -2.5149,0.2301 -4.7149,0.4284 -2.2,0.1983 -7.375,0.8767 -11.5,1.5075 -4.4326,0.6779 -20.9963,1.1688 -40.5,1.2003 -42.0902,0.068 -76.1409,-2.3745 -114,-8.1775 -3.3,-0.5058 -10.5,-1.6064 -16,-2.4457 -5.5,-0.8394 -12.475,-2.2364 -15.5,-3.1045 -3.025,-0.8682 -12.025,-2.9153 -20,-4.5492 -7.975,-1.6338 -20.4537,-4.9805 -27.7305,-7.4371 -14.303497,-4.8287 -37.615195,-15.3063 -48.635095,-21.8594 -7.5411,-4.4845 -16.8336,-13.8809 -23.5344,-23.7976 -4.0847,-6.0452 -4.2521,-6.5831 -3.6835,-11.8331 0.3698,-3.4144 1.9601,-8.1543 4.1938,-12.5 1.979,-3.85 5.1715,-10.15 7.0944,-14 1.923,-3.85 5.4146,-9.7 7.7591,-13 2.3446,-3.3 7.0154,-10.05 10.3797,-15 3.3643,-4.95 9.6886,-14.175 14.0541,-20.5 4.3655,-6.325 13.5861,-19.825 20.490198,-30 6.9042,-10.175 17.093097,-25.025 22.642197,-33 11.6221,-16.7029 23.0716,-33.5591 31.5851,-46.5 1.8091,-2.75 5.0861,-7.475 7.2821,-10.5 4.8465,-6.676 18.2917,-26.1181 23.1028,-33.4073 11.5172,-17.44928 24.6656,-36.53648 27.0742,-39.30298 1.5372,-1.7656 4.0351,-5.3657 5.5509,-8 3.6461,-6.33676 15.8513,-23.71876 20.3215,-28.94096 1.9544,-2.2831 5.2404,-6.1839 7.3022,-8.6683 2.479,-2.9872 6.7127,-6.1352 12.5,-9.2946 l 8.7512,-4.7775 10.5,-0.045 c 5.775,-0.025 12.8335,0.5513 15.6856,1.2801 6.0876,1.5557 19.1923,9.7657 22.0684,13.8257 5.2707,7.4402 12.3142,20.6103 13.3559,24.9731 0.638,2.6718 2.2858,8.68286 3.6619,13.35786 1.3761,4.675 2.8538,12.325 3.2838,17 0.43,4.675 1.239,10.975 1.7979,14 1.1527,6.23948 2.5232,20.69758 4.6447,48.99998 4.4933,59.9447 4.8859,63.164 7.3721,60.45 1.4493,-1.5822 4.9353,-14.5612 5.6269,-20.95 0.6197,-5.7249 2.8056,-18.6424 6.0919,-36 2.6352,-13.9185 7.5474,-33.5769 11.5461,-46.2074 2.1257,-6.71408 3.8648,-13.11728 3.8648,-14.22938 0,-1.1121 2.4932,-8.2188 5.5405,-15.7926 3.0472,-7.5739 6.7261,-16.92056 8.1752,-20.77056 1.4492,-3.85 4.2949,-9.475 6.3239,-12.5 2.0289,-3.025 5.3544,-8.8095 7.3898,-12.8543 2.0355,-4.0449 5.8354,-10.1199 8.4443,-13.5 2.6089,-3.3802 8.275,-11.5457 12.5915,-18.1457 4.3164,-6.6 10.815,-16.4161 14.4414,-21.8135 3.6264,-5.3974 7.7184,-11.5383 9.0934,-13.6465 1.375,-2.1082 4.6249,-6.9171 7.2219,-10.6865 16.5388,-24.0051 23.5494,-34.8764 41.4965,-64.3478 3.1799,-5.2218 7.3566,-11.7809 9.2816,-14.5758 17.996,-26.12798 17.7339,-25.59034 14.9807,-30.72722 -1.0582,-1.97435 -5.6884,-9.35266 -10.2893,-16.39623 -15.2639,-23.36739 -16.1729,-24.79484 -16.889,-26.5204 -0.3911,-0.94264 -3.9942,-6.46957 -8.0068,-12.28207 -4.0125,-5.81249 -11.7189,-16.96624 -17.1251,-24.7861 -12.6694,-18.32569 -28.1174,-41.72757 -39.251,-59.46073 -2.1557,-3.43355 -6.18,-9.73355 -8.943,-14 -2.7629,-4.26646 -7.2252,-11.5822 -9.9162,-16.2572 -2.6909,-4.675 -5.6621,-9.4 -6.6025,-10.5 -0.9404,-1.1 -3.3672,-5.34028 -5.3929,-9.42284 -2.0257,-4.08256 -4.7451,-9.25756 -6.0431,-11.5 -2.0039,-3.46195 -9.5218,-21.61299 -9.5218,-22.98918 0,-0.2503 -1.3042,-2.62249 -2.8982,-5.27153 -1.594,-2.64905 -3.8331,-7.74145 -4.9757,-11.31645 -1.1426,-3.575 -4.3703,-13.475 -7.1726,-22 -2.8022,-8.525 -5.1136,-16.85 -5.1363,-18.5 -0.036,-2.62702 -8.1897,-35.66399 -10.8856,-44.1066 -1.0683,-3.34565 -3.5506,-17.7173 -4.9467,-28.63968 -0.4742,-3.71046 -1.2138,-7.31046 -1.6436,-8 -0.4297,-0.68955 -1.0671,-3.50372 -1.4164,-6.25372 -0.7417,-5.84016 -3.3741,-20.01931 -5.5695,-30 -2.6236,-11.92687 -2.879,-17.26389 -0.9293,-19.41828 2.6196,-2.89466 11.8804,-5.72026 24.5739,-7.49787 11.4522,-1.60376 18.6995,-2.85903 26.7119,-4.62661 11.0532,-2.4384 65.6127,-8.00005 87.7881,-8.9489 10.45,-0.44713 22.8176,-1.33413 27.4836,-1.97111 4.6659,-0.63697 13.2159,-1.0389 19,-0.89317 5.784,0.14572 15.0602,-0.0957 20.6137,-0.53649 7.9608,-0.63187 11.3971,-0.46847 16.24,0.77222 4.9718,1.27371 7.6218,1.38138 13.9027,0.56485 7.7926,-1.01305 34.7653,-0.009 56.5493,2.1053 5.384,0.52253 13.3421,0.95006 17.6846,0.95006 4.3425,0 10.9623,0.63216 14.7108,1.4048 3.7484,0.77263 12.4403,1.92479 19.3153,2.56035 6.875,0.63555 16.55,2.23059 21.5,3.54453 4.95,1.31394 12.5716,2.86894 16.9367,3.45555 4.3652,0.58662 12.0152,2.38706 17,4.00098 4.9849,1.61393 12.2133,3.9094 16.0633,5.10106 13.2828,4.11132 27.5492,12.79957 31.625,19.25972 1.6311,2.58534 1.9235,4.40556 1.5788,9.82793 -0.4723,7.429 -0.6271,7.73543 -12.3949,24.54527 -4.2949,6.13507 -11.4089,16.83479 -15.8089,23.77716 -4.4,6.94236 -10.7,16.85517 -14,22.02845 -3.3,5.17329 -9.7775,15.38833 -14.3945,22.70009 -10.3001,16.31164 -13.229,20.78339 -14.9076,22.76046 -0.7162,0.84351 -3.0061,4.23365 -5.0886,7.53365 -3.9088,6.19388 -23.0377,35.80105 -30.8843,47.80171 -2.446,3.74094 -6.0848,9.64714 -8.0861,13.1249 -2.0014,3.47775 -4.9889,8.65792 -6.6389,11.51149 -2.6812,4.637 -10.3901,16.48754 -23.4002,35.97192 -5.8368,8.74142 -22.778,36.54232 -25.3439,41.58998 -2.2385,4.40366 -14.3801,23.29899 -17.9424,27.92283 -2.5117,3.26007 -7.135,10.6857 -12.9607,20.81659 -2.1315,3.70668 -6.6401,10.90668 -10.0191,16 -9.6772,14.58703 -18.8337,29.2836 -18.8337,30.22899 0,0.18454 -3.375,5.43321 -7.5,11.66372 -4.125,6.23051 -7.5,11.83672 -7.5,12.45825 0,1.05358 11.5878,19.22137 20.9904,32.90967 6.1301,8.9241 19.1647,29.1351 24.579,38.1114 2.6171,4.3387 11.5512,18.0136 19.8537,30.3886 8.3025,12.375 17.0841,25.875 19.5146,30 2.4306,4.125 9.6264,15.476 15.9908,25.2244 6.3643,9.7485 14.9465,22.9923 19.0715,29.4307 4.125,6.4383 9.8625,15.2536 12.75,19.5895 2.8875,4.3358 5.25,8.2111 5.25,8.6116 0,0.4006 4.3636,7.23426 9.6969,15.18606 12.2617,18.2818 32.9942,49.75398 37.5212,56.95768 1.9011,3.025 5.4161,8.65 7.8113,12.5 2.3952,3.85 6.6595,10.6 9.4763,15 6.6827,10.4391 14.4478,22.8099 21.3418,34 3.0495,4.95 9.0183,14.625 13.2639,21.5 4.2456,6.875 11.4232,18.575 15.9501,26 4.527,7.425 9.2117,14.85 10.4104,16.5 1.1987,1.65 5.7189,8.85 10.0449,16 7.9797,13.1889 12.8224,20.8309 26.298,41.5 4.1237,6.325 9.2274,14.1578 11.3414,17.4063 5.3118,8.1619 5.3694,13.4514 0.2123,19.4764 -4.1106,4.8023 -17.4327,14.0381 -27.8685,19.3204 -3.85,1.9488 -13.525,6.8852 -21.5,10.9698 -19.5026,9.9888 -26.2483,12.5747 -59,22.6175 -3.575,1.0962 -8.7896,2.9065 -11.588,4.0229 -2.7985,1.1164 -11.1946,3.1955 -18.658,4.6202 -7.4635,1.4247 -15.5239,3.2904 -17.912,4.1461 -5.0103,1.7952 -32.3662,6.7942 -45.439,8.3034 -4.8966,0.5653 -16.103,2.2013 -24.903,3.6357 -14.781,2.4092 -45.6943,4.9222 -73.5,5.9749 -11.1678,0.4228 -11.6369,0.3546 -16.2427,-2.3628 z m 42.7427,-12.2704 c 46.1275,-5.3195 59.2456,-7.1208 68.5,-9.406 6.8539,-1.6924 18.7847,-3.4946 25.5,-3.8518 2.2,-0.117 5.575,-0.7404 7.5,-1.3852 1.925,-0.6449 8.225,-1.8569 14,-2.6933 5.775,-0.8365 13.425,-2.3874 17,-3.4466 3.575,-1.0592 11.1141,-2.8354 16.7535,-3.9471 5.6845,-1.1207 13.7052,-3.5764 18,-5.5111 4.2606,-1.9193 11.1493,-4.3984 15.3083,-5.509 6.7352,-1.7985 20.9444,-8.2107 24.2212,-10.9302 0.6755,-0.5606 2.5757,-1.3445 4.2226,-1.742 5.4234,-1.3089 21.2833,-9.1745 30.1406,-14.9479 9.5066,-6.1967 19.3213,-14.3568 19.3412,-16.0805 0.021,-1.7926 -6.1087,-13.7178 -8.4345,-16.4097 -1.188,-1.375 -3.2437,-4.975 -4.5684,-8 -2.4112,-5.5065 -5.5269,-10.4846 -11.8727,-18.9695 -1.8636,-2.4918 -4.2358,-6.5031 -5.2717,-8.914 -1.0359,-2.4109 -3.3361,-6.2036 -5.1117,-8.4282 -3.4802,-4.3603 -6.4978,-9.0558 -9.5278,-14.8255 -1.0505,-2.0004 -4.0004,-6.3538 -6.5553,-9.674 -2.5549,-3.3203 -4.6453,-6.3661 -4.6453,-6.7685 0,-0.4023 -1.2375,-2.3285 -2.75,-4.2804 -1.5125,-1.9519 -3.875,-5.8193 -5.25,-8.5944 -1.375,-2.775 -3.5334,-6.6205 -4.7966,-8.5455 -10.4629,-15.9453 -30.9646,-48.6905 -34.1222,-54.5 -1.1958,-2.2 -4.7407,-8.1368 -7.8777,-13.1929 -3.1369,-5.0561 -8.8443,-14.2811 -12.6832,-20.5 -3.8389,-6.2189 -9.4639,-14.8357 -12.5,-19.1484 -3.0361,-4.3128 -6.8703,-9.9888 -8.5203,-12.6133 -1.65,-2.6246 -4.0463,-6.071 -5.3251,-7.6587 -2.4932,-3.09528 -7.6943,-11.38118 -11.2275,-17.88668 -1.1949,-2.2 -3.825,-6.25 -5.8447,-9 -4.2798,-5.8273 -16.529,-24.70186 -19.9868,-30.79726 -2.4105,-4.2493 -4.8115,-7.9886 -22.706,-35.3617 -5.4504,-8.3375 -12.6099,-19.3086 -15.9099,-24.3804 -6.9072,-10.6157 -10.2806,-15.7303 -20,-30.3236 -3.85,-5.7806 -9.6197,-14.4762 -12.8215,-19.3236 -3.2019,-4.8474 -8.1519,-12.211 -11,-16.3636 -6.7179,-9.7946 -11.5666,-17.2374 -14.6785,-22.5315 -3.3398,-5.682 -10.1907,-16.4369 -15.5545,-24.4183 -7.6037,-11.3145 -6.9488,-10.6572 -8.9569,-8.9905 -0.9749,0.8091 -5.4581,7.1004 -9.9626,13.9808 -4.5046,6.8803 -11.3032,17.1779 -15.108,22.8834 -3.8049,5.7056 -9.618,14.5668 -12.918,19.6916 -3.3,5.1248 -8.7,13.3025 -12,18.1725 -3.3,4.8701 -10.275,15.5129 -15.5,23.6506 -5.225,8.1377 -14,21.6411 -19.5,30.0075 -14.6964,22.3556 -15.5,23.7443 -15.5,26.7852 0,2.2193 0.5553,2.9037 2.75,3.3896 4.9979,1.1066 9.7214,2.7143 11.75,3.9995 1.1,0.6968 3.8523,1.7547 6.1162,2.3509 2.2639,0.5961 5.1889,2.1074 6.5,3.3584 1.3111,1.251 4.0342,3.4944 6.0512,4.9854 7.4493,5.5062 24.7802,31.73736 24.8229,37.57046 0.01,0.7346 1.5847,4.5326 3.5097,8.44 1.925,3.9075 3.5,8.0967 3.5,9.3092 0,1.2126 0.8706,5.0646 1.9347,8.5601 4.0175,13.19748 6.85,25.59228 7.3939,32.35528 0.3097,3.85 1.7063,10.2366 3.1037,14.1926 1.5773,4.4652 2.3269,8.2614 1.977,10.0114 -0.3101,1.5503 0.1394,4.8387 0.9989,7.3074 0.8595,2.4687 1.5693,7.2154 1.5773,10.5482 0.01,3.3328 0.9027,9.6328 1.9882,14 2.0143,8.1037 3.0194,14.727 5.4543,35.9404 0.7576,6.6 2.0784,13.6303 2.9351,15.623 0.8567,1.9926 1.3157,3.8649 1.02,4.1606 -0.2957,0.2957 0.1622,4.2903 1.0175,8.877 0.8553,4.5867 1.4755,10.3644 1.3783,12.8394 -0.1685,4.2872 1.092,13.2236 3.2443,23 0.5448,2.475 2.15,13.05 3.567,23.5 1.417,10.45 3.2376,20.4045 4.0459,22.1211 0.8082,1.7165 1.4409,5.0915 1.4061,7.5 -0.083,5.7253 1.6689,16.1018 3.7779,22.3789 1.0784,3.2098 1.6799,8.2224 1.6799,14 0,4.95 0.3913,9.6065 0.8695,10.3478 0.4782,0.7413 1.2496,6.4404 1.7141,12.6647 0.9111,12.2074 2.4493,19.8549 4.3029,21.3933 2.2904,1.9008 11.3642,1.8862 28.1135,-0.045 z m 130.75,-39.5227 c -1.7924,-0.7233 -1.5442,-5.0108 0.3318,-5.7307 0.87,-0.3339 2.5575,-0.6169 3.75,-0.629 1.1925,-0.012 4.1932,-0.9728 6.6682,-2.135 2.475,-1.1623 6.3,-2.4557 8.5,-2.8745 2.2,-0.4187 9.175,-2.8681 15.5,-5.4432 6.325,-2.575 15.1,-6.0661 19.5,-7.7579 4.4,-1.6918 10.7,-4.4234 14,-6.0701 3.3,-1.6468 7.8,-3.8773 10,-4.9567 2.2,-1.0795 4.9685,-2.8498 6.1522,-3.934 1.2212,-1.1187 3.1677,-1.8276 4.5,-1.639 1.9828,0.2807 2.3956,0.9923 2.6551,4.5771 0.4032,5.5703 -2.1492,7.9604 -13.0737,12.2425 -4.5285,1.775 -10.5682,4.304 -13.4216,5.62 -2.8535,1.3161 -5.7785,2.3972 -6.5,2.4026 -0.7216,0.01 -3.7808,1.1589 -6.7982,2.5634 -3.0174,1.4045 -8.4868,3.1849 -12.1541,3.9563 -3.6674,0.7715 -8.3986,2.271 -10.5138,3.3324 -2.1152,1.0613 -6.9822,2.2242 -10.8155,2.5842 -3.8332,0.36 -8.953,1.5319 -11.3771,2.6042 -4.626,2.0464 -4.8971,2.0969 -6.9033,1.2874 z m -11.25,-33.2069 c 0,-1.1091 6.6254,-2.2118 8.6416,-1.4381 1.2375,0.4749 1.2739,0.7455 0.1923,1.4312 -1.759,1.115 -8.8339,1.1206 -8.8339,0.01 z m 13.0339,-1.0839 c -1.6224,-1.0315 0.1384,-1.9391 7.7253,-3.9821 2.2043,-0.5935 4.5414,-1.722 5.1935,-2.5077 0.652,-0.7857 2.6168,-1.7429 4.3661,-2.1271 1.7493,-0.3842 4.9807,-1.5147 7.1809,-2.5123 2.2002,-0.9975 9.837,-4.3775 16.9708,-7.511 16.1446,-7.0917 21.308,-9.822 24.6778,-13.0495 2.1852,-2.093 3.0039,-2.3461 4.6823,-1.4479 2.4091,1.2893 3.5515,4.3114 2.6745,7.0747 -0.6149,1.9374 -13.8473,9.016 -16.8542,9.016 -0.7733,0 -1.9298,0.6312 -2.5701,1.4027 -3.5553,4.2839 -31.236,13.6761 -44.2457,15.0127 -3.1157,0.3202 -6.2657,0.8029 -7,1.0728 -0.7343,0.2699 -1.9948,0.071 -2.8012,-0.4413 z m -32.0339,-30.4356 c 0,-1.3753 1.6022,-1.8236 11.4502,-3.2044 2.7226,-0.3817 7.2226,-1.6942 10,-2.9166 2.7774,-1.2224 7.7498,-2.993 11.0498,-3.9347 3.3,-0.9416 7.0227,-2.3689 8.2727,-3.1717 1.2499,-0.8028 7.1652,-3.2123 13.1451,-5.3544 5.9798,-2.1421 13.5071,-5.2238 16.7273,-6.8481 11.0865,-5.5921 16.3549,-5.9512 16.3549,-1.1147 0,5.1357 -11.5923,11.1206 -31.5,16.2627 -5.5,1.4206 -13.4548,3.7125 -17.6774,5.093 -4.3908,1.4355 -11.0261,2.7036 -15.5,2.9621 -4.3024,0.2486 -9.7916,1.1638 -12.1983,2.0338 -5.4813,1.9814 -10.1243,2.0699 -10.1243,0.193 z m -11.376,-31.4107 c -0.935,-1.513 -0.078,-1.8477 9.2684,-3.6207 6.4945,-1.232 9.1058,-2.2491 11.7625,-4.5817 1.9997,-1.7558 4.5399,-2.9984 6.1299,-2.9987 2.8686,-5e-4 11.9507,-3.0519 16.2995,-5.4761 1.4213,-0.7924 4.7491,-1.9258 7.3951,-2.5188 4.384,-0.9824 15.2835,-5.8092 21.5206,-9.5303 3.1196,-1.8611 6.9582,-1.5176 8.3776,0.7496 1.6823,2.687 -5.2818,9.3453 -10.6769,10.208 -2.2627,0.3618 -6.3835,1.9192 -9.1574,3.4609 -6.0512,3.3632 -7.8564,4.0138 -22.0433,7.9439 -21.3185,5.9059 -37.52,8.558 -38.876,6.3639 z m -6.4492,-40.8815 c 0.2528,-1.3211 1.5768,-1.9812 4.8367,-2.4111 6.5156,-0.8594 29.6949,-9.1181 50.6231,-18.0369 3.924,-1.6723 8.199,-2.8899 9.5,-2.7058 3.0445,0.4308 3.6923,4.252 1.1958,7.054 -3.9435,4.426 -24.3452,11.7807 -32.6793,11.7807 -2.5484,0 -7.8998,1.09 -11.8922,2.4223 -3.9924,1.3323 -10.5603,2.7134 -14.5955,3.0691 -6.74,0.5942 -7.3083,0.4989 -6.9886,-1.1723 z m -12.8174,-36.0883 c 0.3661,-0.5923 2.1229,-1.384 3.9041,-1.7594 1.7812,-0.3754 5.7135,-1.9418 8.7385,-3.4809 3.025,-1.539 9.325,-3.9141 14,-5.2779 8.6301,-2.5176 16.2696,-5.3843 23.5,-8.8184 5.0362,-2.3919 7.6603,-2.3947 10.6033,-0.012 1.9975,1.6175 2.1678,2.2272 1.2097,4.33 -1.2955,2.8433 -8.2189,5.5249 -29.1842,11.3039 -13.8294,3.812 -34.2631,6.128 -32.7714,3.7144 z m -0.3574,-35.9517 c -4.6301,-0.8306 -4.2821,-2.1178 0.9963,-3.6854 2.8847,-0.8566 7.3282,-2.7232 9.8744,-4.1479 5.0412,-2.8209 24.5755,-9.4458 27.852,-9.4458 1.1178,0 2.624,0.7127 3.3469,1.5838 2.177,2.6231 -0.085,4.5715 -8.6469,7.4485 -4.3705,1.4685 -9.3286,3.3848 -11.0179,4.2584 -3.3602,1.7376 -15.5215,4.7906 -18.2168,4.5731 -0.9284,-0.075 -2.813,-0.338 -4.188,-0.5847 z m -19.3493,-32.7471 c -0.7455,-1.9427 0.7465,-2.7875 7.3493,-4.1615 3.025,-0.6295 10.9376,-3.6703 17.5836,-6.7575 6.6459,-3.0871 12.8069,-5.613 13.691,-5.613 4.4612,0 3.1231,5.8495 -1.9929,8.712 -2.0799,1.1637 -7.6067,3.32 -12.2817,4.7917 -4.675,1.4718 -9.5336,3.0855 -10.797,3.5861 -3.8058,1.508 -12.9033,1.1336 -13.5523,-0.5578 z m -14.1477,-33.5272 c -1.0597,-1.7146 1.1452,-3.4477 7.997,-6.2858 3.3,-1.36688 9.825,-4.12718 14.5,-6.13388 9.8033,-4.208 15.2939,-4.5318 15.8069,-0.9322 0.2557,1.7946 -0.9547,2.7596 -7.2728,5.7985 -6.5203,3.13618 -10.9616,4.44698 -27.6628,8.16488 -1.556,0.3464 -2.9305,0.097 -3.3683,-0.6115 z m -12.8363,-34.67148 c -1.4929,-1.493 -0.3944,-2.5627 5.0833,-4.9498 3.1625,-1.3782 6.65,-3.0048 7.75,-3.61466 8.3751,-4.6437 13.9701,-6.8677 15.9976,-6.3588 4.6865,1.1762 3.7836,6.99706 -1.2764,8.22856 -1.4966,0.3642 -6.6973,2.1696 -11.5569,4.0118 -8.3248,3.1558 -14.4906,4.1899 -15.9976,2.6829 z m -11.2169,-33.41456 c -1.1399,-1.8444 4.3932,-6.5503 11.6162,-9.8796 8.3582,-3.8525 11.2963,-3.7498 11.7698,0.4115 0.3936,3.4583 -1.84,5.5494 -5.9276,5.5494 -1.4903,0 -5.1167,1.1206 -8.0589,2.4902 -5.8293,2.7137 -8.3668,3.0993 -9.3995,1.4285 z m -13.1998,-32.9499 c -5.0262,-2.0203 -0.8433,-6.5165 8.6155,-9.2608 5.7647,-1.6725 7.635,-1.4523 8.5799,1.0102 1.2406,3.2328 -0.5082,5.021 -6.9917,7.1494 -7.2379,2.376 -7.0756,2.3585 -10.2037,1.1012 z m -8,-28.6311 c -3.446,-1.3905 1.1107,-9.3377 5.354,-9.3377 4.5571,0 4.4601,6.7385 -0.127,8.8285 -2.7406,1.2487 -3.2671,1.3 -5.227,0.5092 z m -13.1031,-30.6608 c -1.428,-1.7207 -0.4852,-4.6769 1.4915,-4.6769 2.1141,0 2.8521,2.9381 1.1625,4.6277 -1.2717,1.2717 -1.6339,1.2784 -2.654,0.049 z m -227.1469,465.80684 c 10.9288,-0.4147 18.378,-1.5284 19.8115,-2.962 1.0256,-1.0255 0.4541,-32.8375 -0.8088,-45.0218 -1.4962,-14.436 -1.6125,-15.6776 -2.9499,-31.5 -0.6277,-7.425 -1.5307,-15.5211 -2.0068,-17.9913 -0.4761,-2.4703 -0.6859,-4.7823 -0.4661,-5.1379 0.2197,-0.3555 -0.08,-4.1844 -0.665,-8.5086 -0.5855,-4.3242 -1.2147,-14.8372 -1.3982,-23.3622 -0.216,-10.0366 -0.8887,-17.5214 -1.9085,-21.2349 -1.1166,-4.0662 -1.7131,-12.0682 -2.0498,-27.5 -0.2611,-11.9708 -1.1638,-28.0651 -2.0059,-35.7651 -0.8421,-7.7 -1.5359,-15.9421 -1.5417,-18.3157 -0.01,-2.3737 -0.5566,-5.2987 -1.2236,-6.5 -0.7153,-1.2881 -1.5237,-9.1594 -1.9703,-19.1843 -0.4165,-9.35 -1.2098,-19.925 -1.7628,-23.5 -0.5531,-3.575 -1.4521,-11.8624 -1.9979,-18.4163 -1.0493,-12.60078 -3.2472,-25.44118 -5.4917,-32.08368 -0.7434,-2.2 -2.1135,-6.475 -3.0446,-9.5 -2.5434,-8.26296 -11.1784,-22.82856 -17.0336,-28.73246 -2.8541,-2.8778 -7.1686,-6.1304 -9.5878,-7.228 -5.8556,-2.6567 -16.1101,-2.7109 -22.9258,-0.1212 -6.8199,2.5914 -15.5941,9.8998 -21.2764,17.722 -1.5421,2.1228 -5.0913,6.7789 -7.8872,10.3469 -2.7959,3.5679 -5.8667,8.29286 -6.8239,10.49996 -0.9573,2.207 -4.9455,8.4216 -8.8628,13.8101 -3.9173,5.3885 -7.1224,10.2085 -7.1224,10.7111 0,0.5026 -1.9341,3.2938 -4.298,6.2027 -5.7986,7.13538 -19.2769,27.10308 -22.4788,33.30178 -0.5718,1.107 -2.7212,3.7958 -4.7765,5.9749 -2.0552,2.1792 -4.3873,5.5484 -5.1825,7.4872 -0.7952,1.9387 -2.7039,4.875 -4.2416,6.525 -1.5377,1.65 -5.4025,7.275 -8.5884,12.5 -3.1859,5.225 -7.684,11.6273 -9.9957,14.2273 -2.3117,2.6 -6.3737,8.225 -9.0265,12.5 -2.6529,4.275 -6.3365,9.7977 -8.1857,12.2727 -1.8493,2.475 -5.2442,7.3853 -7.5443,10.9118 -2.3001,3.5265 -5.307,8.09 -6.682,10.1412 -1.375,2.0512 -6.3822,9.5159 -11.1271,16.5882 -4.745,7.0723 -9.320597,14.2277 -10.168197,15.9009 -0.8475,1.6731 -3.3778,5.2649 -5.6228,7.9816 -2.245,2.7168 -4.0819,5.295 -4.0819,5.7294 0,1.1671 -4.780998,8.4157 -10.056498,15.2469 -2.5485,3.3 -6.3552,9.15 -8.4594,13 -2.1041,3.85 -5.9988,9.3356 -8.6549,12.1901 -2.656,2.8546 -4.8292,5.8288 -4.8292,6.6093 0,0.7805 -1.5706,3.395 -3.4902,5.8099 -1.9197,2.4149 -3.4947,4.7712 -3.5,5.2363 -0.01,0.4651 -0.8587,2.0401 -1.8963,3.5 -7.6928,10.8241 -2.5895,21.7311 16.0239,34.2467 4.8322,3.2493 9.0729,5.9077 9.4236,5.9077 0.3507,0 3.1816,1.5702 6.2908,3.4894 6.7074,4.14 34.146895,13.6081 49.648195,17.1313 6.05,1.3751 15.05,3.5512 20,4.8359 4.95,1.2847 11.925,2.8532 15.5,3.4855 3.575,0.6323 8.75,1.5538 11.5,2.0479 10.6181,1.9076 40.2856,4.8152 60,5.8805 7.15,0.3863 13.571,1.0553 14.2689,1.4866 0.6978,0.4313 7.6728,1.0225 15.5,1.3138 7.8271,0.2913 14.4561,0.7478 14.7311,1.0144 0.275,0.2666 7.475,0.2035 16,-0.1402 8.525,-0.3437 20.675,-0.8213 27,-1.0613 z m -191.5,-48.0368 c -4.4,-0.8088 -10.7552,-2.8153 -14.1227,-4.4588 -3.3675,-1.6435 -7.1316,-2.9882 -8.3646,-2.9882 -1.2331,0 -4.3279,-1.1068 -6.8773,-2.4596 -2.549497,-1.3527 -9.585397,-4.711 -15.635395,-7.4627 -12.3767,-5.6292 -13.5546,-7.3296 -7.2211,-10.4238 3.5646,-1.7415 3.9248,-1.7505 6.3546,-0.1584 5.426598,3.5556 24.140995,13.2738 27.913995,14.4954 2.1739,0.7039 5.6816,2.1492 7.7949,3.2119 3.6598,1.8403 7.7733,2.7766 21.0521,4.7916 6.9511,1.0549 8.7237,2.316 6.4503,4.5894 -2.2561,2.2561 -8.1669,2.5503 -17.3448,0.8632 z m 9.5,-31.3543 c -16.3986,-5.3662 -42.531897,-17.3497 -44.059297,-20.2036 -0.77,-1.4388 -0.4649,-2.1547 1.454,-3.4121 2.3042,-1.5097 2.7868,-1.4107 9.426297,1.9328 10.061,5.0667 28.4732,12.5046 37.0738,14.9766 7.5348,2.1657 9.9171,4.0556 8.7958,6.9777 -0.8258,2.152 -5.5966,2.05 -12.6906,-0.2714 z m 14,-29.8038 c -1.375,-0.2413 -6.4375,-2.205 -11.25,-4.3638 -4.8125,-2.1588 -12.9125,-5.761 -18,-8.0049 -13.0668,-5.7631 -13.4447,-5.9664 -15.8452,-8.5215 -2.5762,-2.7423 -1.908,-5.3987 1.3582,-5.3987 1.2791,0 9.6603,3.5618 18.6248,7.9152 8.9645,4.3533 19.4326,8.683 23.2623,9.6216 5.0653,1.2413 7.3866,2.3525 8.5165,4.0771 2.9075,4.4374 0.7202,5.9713 -6.6666,4.675 z m 12.2993,-29.3769 c -1.7604,-0.519 -3.4745,-1.3865 -3.809,-1.9278 -0.3346,-0.5413 -1.2784,-0.9842 -2.0975,-0.9842 -0.8191,0 -7.1294,-2.7461 -14.023,-6.1025 -12.3375,-6.007 -19.8987,-11.2327 -18.8075,-12.9982 1.169,-1.8915 5.0203,-0.6842 18.2568,5.7233 7.5245,3.6424 15.8632,7.4449 18.5303,8.4501 6.7231,2.5336 9.8308,4.7499 9.4516,6.7404 -0.3814,2.0017 -3.0926,2.3989 -7.5017,1.0989 z m 10.0061,-32.8603 c -2.307,-1.0474 -5.899,-3.0625 -7.9821,-4.478 -2.0831,-1.4155 -4.7079,-2.5737 -5.8329,-2.5737 -1.1249,0 -3.158,-0.7846 -4.5178,-1.7436 -1.3599,-0.959 -4.6101,-2.7383 -7.2226,-3.954 -5.3765,-2.5019 -5.9308,-3.9029 -2.1179,-5.3526 3.2638,-1.2409 3.9429,-1.023 18.796,6.0316 6.6396,3.1535 13.7246,6.5075 15.7446,7.4534 3.6631,1.7152 5.3371,3.9315 4.2716,5.6554 -0.9376,1.517 -6.6918,0.9805 -11.1389,-1.0385 z m 9.1946,-32.0146 c -4.4,-2.1493 -9.125,-4.5587 -10.5,-5.3543 -1.375,-0.7955 -3.85,-1.8479 -5.5,-2.3387 -2.02,-0.6008 -3,-1.5377 -3,-2.8682 0,-3.3072 3.5985,-2.8289 13.5782,1.8047 11.811,5.4841 17.9218,9.3138 17.9218,11.2319 0,2.4683 -4.0019,1.6758 -12.5,-2.4754 z m 12.862,-34.555 c -9.9604,-4.9891 -13.6855,-8.0461 -11.4717,-9.4143 2.0979,-1.2966 8.2686,0.5686 17.255,5.2155 6.1355,3.1728 8.3547,4.8379 8.3547,6.2685 0,3.432 -4.4571,2.7795 -14.138,-2.0697 z m 14.7926,-34.96 c -9.1489,-4.4528 -11.7218,-6.9038 -9.0503,-8.6213 2.0035,-1.288 6.4405,-0.1306 13.9533,3.6396 7.2585,3.6427 9.4566,5.6773 8.5857,7.9469 -0.9265,2.4144 -3.6787,1.8094 -13.4887,-2.9652 z m 24.0222,-33.0243 c -11.5492,-6.0032 -14.9987,-11.42208 -6.6905,-10.51008 2.9894,0.3282 11.4445,4.85208 14.1788,7.58648 1.9706,1.9706 2.2158,2.7799 1.3385,4.4191 -1.3235,2.473 -1.1286,2.506 -8.8268,-1.4955 z m 21.8232,-29.29438 c -0.825,-0.2591 -3.3232,-1.9428 -5.5517,-3.7417 -2.2284,-1.7989 -5.0587,-3.4262 -6.2896,-3.6162 -3.0759,-0.4749 -2.9828,-2.0531 0.2271,-3.8455 2.5358,-1.4161 3.0619,-1.3013 9.4002,2.051 5.3144,2.8107 6.7774,4.0864 7.0179,6.1193 0.3165,2.6763 -1.7617,3.9885 -4.8039,3.0331 z m 1.38,-30.65556 c -0.8206,-2.1386 0.4187,-3.5478 3.12,-3.5478 2.947,0 4.0674,1.6115 2.4637,3.5438 -1.5564,1.8753 -4.8647,1.8777 -5.5837,0 z m 264.8066,359.43504 c -0.4908,-8.5872 -0.7366,-8.9829 -5.5796,-8.9829 -4.9325,0 -7.6688,-2.3373 -9.5233,-8.1346 -0.8367,-2.6157 -2.6234,-4.6402 -6.3731,-7.2214 -2.8658,-1.9727 -8.3606,-6.2895 -12.2106,-9.5929 -3.85,-3.3034 -8.2717,-6.7206 -9.826,-7.5937 -2.7962,-1.5706 -13.0692,-8.9431 -24.0362,-17.2498 -3.1169,-2.3608 -7.348,-5.2653 -9.4024,-6.4544 -2.0545,-1.1891 -5.7604,-3.8244 -8.2354,-5.8563 -4.4053,-3.6165 -14.8418,-10.7001 -29.619,-20.1033 -4.0679,-2.5886 -8.8553,-6.0757 -10.6386,-7.7493 -1.7833,-1.6735 -5.2674,-3.9842 -7.7424,-5.1348 -2.475,-1.1507 -6.122,-3.6534 -8.1045,-5.5617 -1.9825,-1.9083 -5.6722,-4.9048 -8.1994,-6.6587 -21.7883,-15.1226 -26.0989,-17.516 -29.3204,-16.2798 -1.2989,0.4985 -1.4689,1.5036 -0.9048,5.3522 0.8324,5.6799 3.0078,8.1894 12.8312,14.8017 3.9589,2.6648 8.6761,6.1032 10.4827,7.6409 1.8067,1.5378 3.7437,2.7959 4.3044,2.7959 0.5608,0 4.09,2.5875 7.8428,5.75 3.7527,3.1625 9.2407,7.245 12.1956,9.0723 2.9548,1.8273 8.2974,5.5398 11.8724,8.2501 3.575,2.7103 8.3601,5.7893 10.6334,6.8422 2.2734,1.0529 4.7484,2.7773 5.5,3.832 1.9054,2.6736 22.16,17.8025 42.6626,31.8662 4.5628,3.1298 8.7336,6.5082 9.2684,7.5075 0.5349,0.9993 3.1017,3.0288 5.704,4.5099 2.6024,1.4811 6.0816,3.905 7.7316,5.3864 1.65,1.4814 5.025,4.0563 7.5,5.722 2.475,1.6658 5.4,4.0349 6.5,5.2648 1.1,1.2299 5.6242,3.9617 10.0536,6.0706 4.4295,2.109 8.9018,4.7717 9.9385,5.9172 3.3317,3.6815 5.0502,2.2142 4.6945,-4.0083 z m -3.0938,-24.2329 c 0.2597,-3.5001 -0.3645,-10.3346 -1.127,-12.34 -0.475,-1.2493 -3.2491,-4.0896 -6.1647,-6.3119 -16.8706,-12.8587 -26.3769,-19.9729 -30.5684,-22.8765 -2.603,-1.8032 -9.9077,-7.0034 -16.2327,-11.5562 -6.325,-4.5528 -16.225,-11.5418 -22,-15.5311 -17.6928,-12.222 -34.3043,-23.841 -38.3297,-26.8098 -2.1063,-1.5535 -7.7313,-5.6022 -12.5,-8.9973 -4.7686,-3.395 -10.2453,-7.5049 -12.1703,-9.1331 -1.925,-1.6282 -8.675,-6.4198 -15,-10.648 -6.325,-4.2281 -12.4,-8.4887 -13.5,-9.4678 -4.1069,-3.6557 -7.5,-3.0673 -7.5,1.3007 0,1.0885 -0.5625,3.537 -1.25,5.4411 -1.1949,3.3097 -1.1202,3.555 1.6976,5.571 1.6211,1.1599 4.6061,3.6839 6.6333,5.6089 4.5874,4.3562 11.3224,9.2184 15.9191,11.4924 1.925,0.9523 4.85,2.9832 6.5,4.5129 1.65,1.5298 5.9476,4.742 9.5501,7.1381 3.6026,2.3961 7.8776,5.3886 9.5,6.6499 2.9926,2.3264 5.0244,3.7346 29.9499,20.7568 7.7,5.2585 17.9021,12.5735 22.6713,16.2554 4.7691,3.682 11.0691,8.3858 14,10.453 2.9308,2.0672 8.6282,6.1172 12.6608,9 4.0326,2.8828 10.1076,6.9925 13.5,9.1326 3.3924,2.1401 8.7948,6.0776 12.0054,8.75 3.2106,2.6724 6.3606,4.8637 7,4.8695 0.6394,0.01 3.4125,1.8011 6.1625,3.9894 5.0179,3.9929 8.4198,5.0817 8.5928,2.75 z m -4.3407,-36.2498 c -0.6234,-7.7663 -2.3719,-10.7358 -8.4285,-14.314 -2.5007,-1.4774 -7.5341,-5.1217 -11.1852,-8.0983 -3.6511,-2.9767 -9.1759,-7.0618 -12.2773,-9.0781 -3.1015,-2.0162 -7.3765,-5.0323 -9.5,-6.7024 -2.1236,-1.6701 -8.3611,-6.0134 -13.8611,-9.6517 -5.5,-3.6383 -13.6,-9.3519 -18,-12.6969 -8.2752,-6.291 -20.6206,-15.1451 -32.0115,-22.9588 -3.6082,-2.475 -8.3201,-5.85 -10.471,-7.5 -2.1509,-1.65 -7.7766,-5.7 -12.5016,-9 -4.725,-3.3 -10.9366,-7.8396 -13.8034,-10.0879 -9.1767,-7.1969 -18.5027,-12.6134 -20.5815,-11.9537 -2.4234,0.7692 -4.454,5.5998 -4.5538,10.8332 -0.071,3.7416 0.3325,4.366 5.4228,8.3833 3.025,2.3874 8.65,6.2153 12.5,8.5065 3.85,2.2912 8.35,5.3776 10,6.8586 2.6174,2.3494 8.4807,6.5218 22.368,15.9173 1.9976,1.3515 8.7177,6.0765 14.9336,10.5 12.9038,9.183 18.0248,12.5648 23.6984,15.6502 2.2,1.1964 6.0669,4.0242 8.593,6.2839 5.024,4.4941 27.6444,20.4202 39.3344,27.6935 4.053,2.5218 9.2723,6.2141 11.5984,8.2051 4.8001,4.1088 14.5359,9.5087 17.3612,9.6294 1.7147,0.073 1.8393,-0.5126 1.3651,-6.4192 z m -4.5706,-32.1037 c -0.3707,-8.0272 -1.8459,-10.8136 -6.9804,-13.1846 -2.0356,-0.94 -6.2022,-3.7347 -9.2592,-6.2105 -3.057,-2.4758 -8.007,-6.2252 -11,-8.332 -2.993,-2.1068 -10.6169,-7.5072 -16.9419,-12.001 -6.325,-4.4938 -12.85,-9.017 -14.5,-10.0517 -1.65,-1.0346 -5.25,-3.5551 -8,-5.6011 -19.2158,-14.2962 -28.8261,-21.1815 -34.3248,-24.5923 -3.4787,-2.1578 -8.2037,-5.3531 -10.5,-7.1006 -2.2963,-1.7474 -7.3252,-5.1038 -11.1752,-7.4586 -3.85,-2.3548 -9.25,-6.1547 -12,-8.4444 -2.75,-2.2896 -6.35,-4.8519 -8,-5.6939 -1.65,-0.8421 -4.7493,-2.9248 -6.8875,-4.6284 -2.1381,-1.7036 -4.2598,-3.0974 -4.7148,-3.0974 -1.5028,0 -2.7431,3.5122 -3.4515,9.773 l -0.6986,6.1751 3.2736,1.776 c 1.8005,0.9767 5.4723,3.6884 8.1596,6.0259 2.6873,2.3375 5.2784,4.25 5.758,4.25 0.4796,0 2.8271,1.6372 5.2166,3.6383 2.3896,2.0011 5.9196,4.694 7.8446,5.9843 1.925,1.2903 5.975,4.1545 9,6.3648 3.025,2.2103 11.125,7.8726 18,12.5829 6.875,4.7102 15.2,10.5602 18.5,12.9999 10.1072,7.4724 17.7435,12.4298 19.1466,12.4298 0.7351,0 1.9028,0.942 2.595,2.0934 0.6921,1.1514 3.2834,3.2889 5.7584,4.75 4.0569,2.395 13.1064,8.5085 28.9279,19.5427 3.0647,2.1373 7.8402,4.9024 10.6122,6.1445 2.772,1.2422 5.6396,2.9809 6.3724,3.8639 0.7328,0.883 1.8826,1.6055 2.555,1.6055 0.6724,0 2.047,0.9109 3.0546,2.0243 3.0335,3.3521 4.0052,1.8578 3.6594,-5.6278 z m -5.1333,-31.5239 c -0.7841,-5.0541 -1.8255,-8.0764 -3.3435,-9.7041 -4.0722,-4.3662 -19.0885,-15.8029 -33.7047,-25.6699 -7.975,-5.3838 -16.1403,-11.0739 -18.1452,-12.6447 -2.0049,-1.5708 -6.1272,-4.318 -9.1608,-6.105 -3.0336,-1.7869 -10.0533,-6.6239 -15.5993,-10.7489 -17.3682,-12.9179 -26.1906,-19.195 -39.0947,-27.8156 -6.875,-4.5928 -13.4,-9.1624 -14.5,-10.1547 -2.7569,-2.4868 -10.384,-6.2194 -11.4113,-5.5845 -1.0575,0.6536 -3.0887,8.5733 -3.0887,12.0431 0,3.6282 3.8228,7.0678 8.7268,7.852 2.9328,0.469 4.327,1.2536 4.7835,2.692 1.0026,3.1588 4.8849,6.3811 19.9897,16.5909 17.6187,11.9091 28.4762,19.5631 36.3525,25.6268 3.3934,2.6125 6.6136,4.75 7.1558,4.75 0.5423,0 2.6748,1.5103 4.7389,3.3561 2.064,1.8459 5.5528,4.5589 7.7528,6.029 2.2,1.4701 5.569,3.8117 7.4866,5.2036 1.9176,1.392 6.3483,4.4164 9.8461,6.7211 12.9405,8.5264 20.0634,13.3154 27.0554,18.1902 9.5139,6.6331 13.3572,8.6548 14.4243,7.5876 0.4996,-0.4996 0.3863,-4.0223 -0.2642,-8.215 z m -4.0917,-25.6226 c -0.095,-8.1601 -1.5827,-12.2935 -6.0722,-16.8679 -4.7283,-4.8178 -28.8428,-21.3821 -31.1283,-21.3821 -0.774,0 -2.4592,-1.1196 -3.7448,-2.4881 -1.2856,-1.3684 -5.9765,-4.9689 -10.4243,-8.001 -4.4478,-3.032 -10.1119,-6.9277 -12.5869,-8.657 -2.475,-1.7293 -10.125,-6.9722 -17,-11.6508 -6.875,-4.6787 -13.7975,-9.5849 -15.3835,-10.9027 -1.5859,-1.3178 -4.5109,-3.2827 -6.5,-4.3666 -1.989,-1.0838 -6.3165,-3.975 -9.6165,-6.425 -15.7907,-11.7232 -21.7653,-14.7609 -24.0977,-12.2523 -0.6359,0.6839 -1.4442,3.1704 -1.7962,5.5255 -0.7254,4.8538 0.5092,6.4582 9.8939,12.8575 2.75,1.8752 8.375,5.893 12.5,8.9285 4.125,3.0355 9.1223,6.2982 11.105,7.2503 3.4868,1.6746 4.7813,2.6303 15.2613,11.2672 2.6764,2.2057 8.3014,6.3044 12.5,9.1082 4.1985,2.8038 9.4337,6.5381 11.6337,8.2984 6.2268,4.9825 37.3301,26.6195 43.863,30.5133 3.2247,1.922 7.7247,5.1072 10,7.0782 8.349,7.2321 11.6595,7.8507 11.5935,2.1664 z m -3.7299,-28.4297 c 0.4202,-1.2607 -0.8895,-12.1469 -1.815,-15.0853 -0.6205,-1.9704 -12.2605,-11.564 -18.1189,-14.9335 -2.086,-1.1997 -5.1905,-3.3753 -6.8989,-4.8347 -1.7084,-1.4593 -9.8084,-7.0819 -18,-12.4947 -8.1916,-5.4128 -16.5069,-11.2209 -18.4786,-12.9068 -1.9716,-1.6859 -4.8966,-3.8436 -6.5,-4.7948 -1.6033,-0.9513 -8.0902,-5.3413 -14.4152,-9.7555 -6.325,-4.4143 -14.65,-10.1034 -18.5,-12.6425 -3.85,-2.5391 -8.125,-5.447 -9.5,-6.462 -1.375,-1.0149 -4.9349,-3.5071 -7.9109,-5.5382 l -5.411,-3.6929 -1.839,2.2711 c -1.0115,1.2491 -1.8452,3.6837 -1.8527,5.4103 -0.01,1.7266 -0.271,4.098 -0.5855,5.27 -0.3241,1.2077 0.01,2.6076 0.7637,3.2317 8.5929,7.0846 15.6508,12.1146 17.0129,12.1248 0.9225,0.01 2.5409,1.1105 3.5964,2.4524 1.6493,2.0967 23.567,18.3809 35.596,26.4468 2.1437,1.4374 5.5808,3.7385 7.6382,5.1135 4.5793,3.0606 14.9685,10.3156 24.9919,17.4525 4.125,2.937 10.65,7.2688 14.5,9.6262 3.85,2.3573 7.7877,4.9489 8.7504,5.759 2.9649,2.495 14.182,9.1611 15.4163,9.1617 0.6417,3e-4 1.3436,-0.5303 1.5599,-1.1791 z m -4.9562,-38.2492 c -0.2755,-8.2287 -1.3921,-10.1628 -8.7989,-15.2402 -3.0736,-2.107 -8.2919,-5.9684 -11.5962,-8.5809 -3.3042,-2.6125 -6.4005,-4.75 -6.8807,-4.75 -0.4801,0 -2.8793,-1.7365 -5.3315,-3.8588 -2.4522,-2.1224 -11.3115,-8.5349 -19.6875,-14.25 -18.8327,-12.8502 -16.6723,-11.4087 -26.3441,-17.5776 -4.4723,-2.8526 -10.1565,-6.5905 -12.6315,-8.3065 -11.2999,-7.8346 -21.6277,-14.024 -22.9748,-13.7688 -2.0934,0.3966 -3.9931,4.6292 -4.0104,8.935 -0.021,5.1719 2.6112,7.8748 18.1379,18.6271 7.3411,5.0836 15.1473,10.5278 17.3473,12.0981 2.2,1.5703 11.2908,7.748 20.2017,13.7283 8.9109,5.9803 19.081,12.8982 22.6002,15.3732 3.5192,2.475 9.7284,6.7108 13.7983,9.4128 4.0699,2.7021 10.9998,7.3157 15.3998,10.2525 4.4,2.9369 8.675,5.2106 9.5,5.0527 1.1872,-0.2271 1.4522,-1.7176 1.2704,-7.1469 z m -5.2823,-30.146 c -1.492,-9.3394 -2.5963,-11.2601 -8.9885,-15.6329 -3.0248,-2.0692 -10.8996,-7.5817 -17.4996,-12.25 -6.6,-4.6682 -15.15,-10.5933 -19,-13.1667 -3.85,-2.5735 -9.7,-6.8008 -13,-9.3941 -3.3,-2.5932 -8.7,-6.1988 -12,-8.0123 -3.3,-1.81338 -6.9,-4.09148 -8,-5.06228 -2.9932,-2.6416 -15.3521,-10.7907 -19.8288,-13.0746 -3.4693,-1.7699 -4.101,-1.8309 -5.4091,-0.5228 -2.3527,2.3526 -3.5436,10.6166 -1.8897,13.1131 0.7569,1.1426 9.4203,7.46528 19.252,14.05028 9.8316,6.5851 19.9006,13.6126 22.3756,15.6167 4.3884,3.5535 12.7654,9.3161 19.5901,13.4763 1.8638,1.1361 4.4061,3.0058 5.6494,4.1548 1.2433,1.1489 3.6928,2.9193 5.4434,3.9342 1.7505,1.0149 7.0763,4.5452 11.8351,7.8452 13.0105,9.0223 20.8201,13.562 21.7429,12.6392 0.455,-0.4551 0.3323,-3.9264 -0.2728,-7.7141 z m -5.4114,-28.6751 c -0.3735,-2.3375 -1.106,-4.6775 -1.6278,-5.2 -0.5219,-0.5225 -0.9489,-2.1879 -0.9489,-3.7008 0,-2.3127 -1.5067,-3.8685 -9.4599,-9.7683 -5.203,-3.8596 -13.1905,-9.4685 -17.75,-12.46428 -11.4735,-7.5384 -22.5494,-15.259 -27.232,-18.9823 -6.66,-5.2956 -21.8298,-15.4954 -26.2134,-17.62526 -2.2855,-1.1104 -4.8254,-1.7618 -5.6443,-1.4476 -0.8189,0.3143 -2.4383,2.85576 -3.5986,5.64776 -2.5112,6.0428 -2.4435,6.1652 6.8795,12.4414 3.5853,2.4136 13.9437,9.532 23.0187,15.8187 17.0092,11.78308 21.88,15.06968 35.3937,23.88278 19.8121,12.9207 24.2299,15.5747 25.9842,15.61 1.6522,0.033 1.7962,-0.4727 1.1988,-4.2121 z m -7.2475,-25.5 c 0.7024,-1.1779 -2.9038,-13.95178 -4.7222,-16.72698 -0.9007,-1.3748 -5.2854,-5.0923 -9.7438,-8.2613 -13.8327,-9.8321 -27.1861,-19.16646 -31.3632,-21.92376 -23.8804,-15.7633 -23.3856,-15.5432 -26.9426,-11.9862 -1.3618,1.3618 -2.7871,3.7154 -3.1673,5.2301 -0.5848,2.3304 -0.146,3.2282 2.8522,5.8361 1.9488,1.6951 4.9297,3.9821 6.6242,5.0821 1.6944,1.1 7.7985,5.37496 13.5645,9.49996 5.766,4.125 11.8476,8.4 13.5146,9.5 1.667,1.1 8.7737,5.8445 15.7927,10.5434 20.1097,13.46238 20.6951,13.83298 21.9527,13.89648 0.6551,0.033 1.3923,-0.2774 1.6382,-0.6899 z m -12.3292,-33.91918 c 0,-1.8221 -5.3044,-11.77406 -7.7716,-14.58076 -0.8461,-0.9625 -2.3328,-1.75 -3.3039,-1.75 -1.1398,0 -1.9939,-1.0399 -2.41,-2.9341 -0.7643,-3.48 -8.3699,-10.2884 -16.7958,-15.0352 -5.4312,-3.0598 -6.173,-3.2151 -12.25,-2.5643 -5.5218,0.5913 -6.4687,0.9796 -6.4687,2.6523 0,2.4659 7.6165,9.9101 16.6046,16.229 8.1364,5.7202 30.5663,19.64826 31.6454,19.65056 0.4125,9e-4 0.75,-0.7495 0.75,-1.6675 z m 66.3584,-247.45217 c 19.3844,-30.99059 26.7352,-42.50575 33.3093,-52.17985 4.1856,-6.15933 10.6166,-16.14879 14.2913,-22.19879 11.6588,-19.19548 16.4681,-26.69753 19.1629,-29.892 1.442,-1.7094 4.5112,-6.87359 6.8204,-11.47597 2.3093,-4.60238 6.1263,-11.35238 8.4822,-15 2.3559,-3.64762 6.2143,-10.00703 8.5741,-14.13203 2.3598,-4.125 5.5054,-9.3 6.9901,-11.5 1.4846,-2.2 4.525,-7.15 6.7562,-11 3.7419,-6.45654 9.6824,-15.49102 25.4995,-38.7801 3.3324,-4.90654 6.6964,-10.78824 7.4756,-13.07044 0.7793,-2.2822 2.6662,-5.49946 4.1932,-7.14946 2.8775,-3.10936 8.8207,-11.69271 13.502,-19.5 1.484,-2.475 4.9598,-7.65 7.724,-11.5 8.8325,-12.30206 16.2611,-23.50198 19.8608,-29.94374 1.925,-3.44483 4.7779,-7.79174 6.3397,-9.65979 1.5618,-1.86806 4.2618,-5.74399 6,-8.61318 1.7382,-2.86919 6.0853,-9.41633 9.6603,-14.54921 3.575,-5.13287 7.1438,-10.43535 7.9306,-11.78329 5.1619,-8.84366 8.0694,-14.26519 8.0694,-15.04686 0,-1.61526 -4.5631,-0.9627 -14.3637,2.05412 -9.7681,3.0068 -12.996,3.68205 -31.6363,6.61798 -20.7489,3.26804 -28.6863,4.32848 -40.5,5.41078 -6.6,0.60466 -13.575,1.52748 -15.5,2.05071 -1.925,0.52323 -6.6798,0.95384 -10.5663,0.9569 -3.8865,0.003 -9.5115,0.43601 -12.5,0.96208 -4.6102,0.81156 -21.617,1.91508 -54.4337,3.53207 -3.85,0.18971 -16.587,0.66064 -28.3044,1.04652 -20.2579,0.66713 -21.3716,0.80632 -22.6706,2.83325 -1.5751,2.45802 -5.0935,24.06081 -6.5361,40.13166 -1.9099,21.27664 -4.1507,34.08275 -9.0111,51.5 -0.9977,3.575 -2.8003,10.775 -4.0059,16 -2.8625,12.40546 -7.4226,24.89099 -11.0406,30.22905 -1.5922,2.34902 -2.903,4.9813 -2.9131,5.84951 -0.025,2.19482 -5.8326,10.75179 -8.1321,11.98243 -1.0418,0.55756 -4.588,3.41735 -7.8804,6.3551 -4.9068,4.37825 -7.4755,5.80417 -14.2459,7.90803 -20.3985,6.3387 -22.8619,6.8604 -29.0186,6.14584 -6.9214,-0.80331 -7.0959,-1.91446 1.9124,12.17292 9.6258,15.05307 14.9854,22.81257 16.7934,24.31307 0.94,0.78013 2.8147,3.60035 4.1661,6.26714 1.3514,2.6668 3.9974,6.55377 5.8802,8.63773 1.8827,2.08396 3.8444,4.8803 4.3593,6.2141 0.515,1.33379 6.0463,10.17479 12.2919,19.64665 10.0912,15.30408 29.6593,45.33294 44.04,67.583 6.2511,9.67189 7.4506,9.72416 13.1739,0.57407 z m -0.049,-39.51456 c -0.8414,-2.19286 0.963,-4.86408 3.2859,-4.86408 2.2422,0 3.056,3.0102 1.3648,5.04804 -1.6033,1.93183 -3.8732,1.84204 -4.6507,-0.18396 z m 8.3273,-20.64046 c -2.1983,-1.60745 -1.3257,-4.08868 1.9653,-5.58817 5.8988,-2.68765 10.6765,-0.23692 8.5664,4.39416 -0.9118,2.00131 -1.8529,2.47039 -4.9559,2.47039 -2.1066,0 -4.6158,-0.57437 -5.5758,-1.27638 z m 5.4866,-25.00026 c -2.1918,-2.19184 -1.0529,-3.60602 4.6108,-5.72507 5.3456,-2.00007 5.9554,-2.0399 9,-0.58803 3.3921,1.61758 4.3175,4.52075 2.0159,6.32442 -1.7441,1.36675 -14.2577,1.35768 -15.6267,-0.0113 z m 14.8766,-26.76315 c -1.375,-0.41847 -3.9625,-0.80571 -5.75,-0.86053 -3.5986,-0.11037 -4.4784,-2.40713 -1.5,-3.91563 3.0894,-1.56466 13.6241,-3.35311 17.75,-3.0134 3.2771,0.26982 4.0583,0.73979 4.3223,2.60018 0.2516,1.77252 -0.4067,2.56566 -3,3.61443 -4.693,1.89798 -8.9135,2.46022 -11.8223,1.57495 z m 2.75,-25.75886 c -3.568,-0.30645 -5.0827,-2.25961 -2.8315,-3.65096 1.2972,-0.80173 16.2457,-3.25854 24.6408,-4.04975 5.9081,-0.55681 7.2847,-0.39361 8.442,1.00085 2.0364,2.45379 0.07,4.85146 -4.6038,5.61408 -5.0822,0.82922 -20.8584,1.49709 -25.6475,1.08578 z m 13.8411,-27.05406 c -1.1006,-1.7808 0.1611,-3.00487 4.2012,-4.07572 6.0531,-1.60443 20.9635,-3.17097 23.6836,-2.48828 3.0713,0.77084 3.3763,3.89029 0.5294,5.41392 -2.9787,1.59413 -27.5257,2.58768 -28.4142,1.15008 z m 8.9089,-26.2615 c -6.4646,-1.47603 -6.8806,-1.72216 -5.5737,-3.29699 0.7147,-0.86115 4.2666,-1.63063 9.3627,-2.02833 4.5161,-0.35243 12.5407,-1.32833 17.8325,-2.16866 11.9359,-1.89538 17.2262,-1.60736 17.714,0.96441 0.1937,1.02092 -0.052,2.25983 -0.5448,2.75313 -0.7781,0.7781 -30.9754,5.06248 -33.7625,4.7902 -0.5655,-0.0553 -2.8282,-0.51144 -5.0282,-1.01376 z m 27.5,-27.80869 c -1.375,-0.41954 -5.9875,-0.54421 -10.25,-0.27706 -6.5106,0.40807 -7.75,0.24036 -7.75,-1.04874 0,-1.87447 2.1864,-2.45728 14.1713,-3.7775 5.1308,-0.5652 11.3537,-1.46668 13.8287,-2.0033 2.475,-0.53662 6.9061,-1.408 9.8468,-1.93641 2.9407,-0.5284 6.1862,-1.22717 7.2122,-1.55281 2.7164,-0.86215 5.941,1.22964 5.941,3.8539 0,3.52234 -1.9358,4.66314 -7.95,4.68493 -5.0949,0.0185 -13.8797,1.0275 -20.05,2.30299 -1.375,0.28423 -3.625,0.17353 -5,-0.246 z m 6,-30.11387 c -3.025,-0.42099 -8.2,-0.81683 -11.5,-0.87965 -7.5043,-0.14284 -9.6291,-1.2475 -5.7783,-3.0041 1.6657,-0.75986 10.4489,-1.61484 21.9325,-2.13498 13.5993,-0.61597 21.7844,-1.49269 28.2237,-3.0231 4.9883,-1.18554 9.7667,-1.88806 10.6186,-1.56115 2.4106,0.92503 2.9138,3.52893 1.0748,5.56105 -1.7694,1.95518 -9.8291,4.65543 -11.2585,3.77198 -0.4649,-0.28732 -2.9477,-0.12963 -5.5173,0.35043 -6.9846,1.30486 -21.5615,1.78709 -27.7955,0.91952 z m 3.5,-30.97459 c -1.1,-0.46644 -3.4625,-0.8797 -5.25,-0.91835 -1.7875,-0.0387 -3.25,-0.45504 -3.25,-0.92528 0,-0.96609 8.7632,-2.18874 37.0767,-5.173 10.7671,-1.13487 21.643,-2.68528 24.1686,-3.44537 5.4156,-1.62986 8.7547,-1.03322 8.7547,1.56431 0,2.46883 -4.9138,4.90905 -9.8852,4.90905 -2.1915,0 -5.0548,0.40692 -6.363,0.90427 -1.3081,0.49735 -9.3249,1.40322 -17.8151,2.01304 -8.4901,0.60983 -17.6867,1.29116 -20.4367,1.51408 -2.75,0.22293 -5.9,0.0237 -7,-0.44275 z m 7.5,-27.87793 c 9.1866,-2.22505 22.2223,-4.23939 23.7188,-3.66513 1.5572,0.59755 15.6723,-1.84945 28.2812,-4.90286 11.0223,-2.66919 17.9377,-3.78063 19.5864,-3.14795 1.573,0.60362 1.5696,0.77543 -0.051,2.56652 -2.53,2.79566 -9.7153,4.94066 -20.5306,6.12896 -5.2275,0.57434 -11.3044,1.4782 -13.5044,2.00856 -2.2,0.53036 -12.325,1.16574 -22.5,1.41196 -11.2115,0.2713 -17.1211,0.11368 -15,-0.40006 z m -188.2103,147.97276 c 7.8962,-1.52677 6.9423,-3.04698 -4.4547,-7.09958 -4.3092,-1.53229 -12.9631,-4.87982 -19.2309,-7.43898 -7.0871,-2.89367 -11.7503,-4.29869 -12.333,-3.71594 -0.5828,0.58276 -0.2723,1.45394 0.8211,2.30405 0.9671,0.75184 3.8169,3.40179 6.3331,5.88878 9.7767,9.66345 17.3217,12.29352 28.8644,10.06167 z m 21.1268,-9.04087 c 3.9648,-2.02266 5.3812,-3.9517 4.241,-5.77589 -0.6857,-1.09708 -21.7048,-10.0859 -28.6575,-12.25535 -2.2,-0.68647 -6.925,-2.50726 -10.5,-4.0462 -3.575,-1.53893 -8.3,-3.12882 -10.5,-3.53308 -2.2,-0.40426 -7.15,-2.07066 -11,-3.70311 -8.9465,-3.79345 -13.5,-4.57133 -13.5,-2.30626 0,3.30864 2.8741,8.37856 6.1439,10.83787 1.8459,1.38832 8.7561,4.63797 15.3561,7.22145 6.6,2.58349 15.2307,5.98054 19.1793,7.54902 3.9486,1.56848 8.8986,3.16342 11,3.54431 2.1014,0.3809 5.3957,1.51237 7.3207,2.51439 4.5092,2.34716 6.2379,2.33969 10.9165,-0.0471 z m 11.258,-13.2926 c 2.1917,-1.75997 6.3214,-9.58744 5.4945,-10.41438 -0.3777,-0.37772 -4.1703,-1.92755 -8.4279,-3.44406 -10.0451,-3.57797 -30.9631,-11.34622 -39.2411,-14.5728 -7.5443,-2.94065 -26.0987,-9.09198 -37.1931,-12.3306 -8.2371,-2.40454 -11.518,-2.15859 -10.2755,0.77027 0.4063,0.95786 1.2659,3.18488 1.9101,4.94893 1.4746,4.03773 4.3767,7.29264 6.5021,7.29264 0.8985,0 3.4162,0.9159 5.595,2.03533 2.1788,1.11943 5.9864,2.53581 8.4614,3.14751 2.475,0.6117 6.3,2.13472 8.5,3.38449 2.2,1.24977 7.375,3.39647 11.5,4.77045 9.9977,3.33007 13.138,4.44498 22,7.81073 23.0422,8.75124 22.6314,8.64353 25.1745,6.60149 z m 10.6101,-21.36152 c 1.1369,-3.08633 1.8625,-6.12383 1.6124,-6.75 -0.6497,-1.62696 -10.1754,-5.30913 -39.897,-15.4222 -4.95,-1.68429 -14.85,-5.13799 -22,-7.6749 -7.15,-2.5369 -16.825,-5.91754 -21.5,-7.51253 -4.675,-1.59499 -11.6035,-4.05397 -15.3968,-5.46441 -3.7932,-1.41044 -8.0082,-2.56444 -9.3666,-2.56444 -2.0973,0 -2.3666,0.33933 -1.7857,2.25 0.3763,1.2375 1.0644,3.74815 1.5292,5.57922 0.4648,1.83108 1.0829,3.56704 1.3735,3.85769 0.2907,0.29065 4.4898,1.85962 9.3315,3.4866 4.8416,1.62697 9.4806,3.56602 10.3089,4.30898 1.8044,1.61848 11.8192,5.51629 14.175,5.51701 0.9179,2.7e-4 2.9429,0.62556 4.5,1.38952 1.5571,0.76396 4.181,1.85987 5.831,2.43536 1.65,0.57549 8.4886,3.30055 15.1969,6.0557 6.7083,2.75516 13.9046,5.32973 15.9917,5.72127 2.0871,0.39155 5.778,1.76642 8.202,3.05528 2.424,1.28885 5.1278,2.37099 6.0084,2.40474 0.8806,0.0338 3.851,1.1213 6.601,2.41677 2.75,1.29547 5.499,2.39285 6.1087,2.43863 0.6098,0.0458 2.0389,-2.44195 3.1759,-5.52829 z m 6.1786,-19.52442 c 2.1421,-4.9795 2.1535,-5.18966 0.3731,-6.8992 -1.9024,-1.82677 -12.4785,-5.95009 -34.8363,-13.5817 -7.15,-2.44058 -14.125,-5.05684 -15.5,-5.8139 -1.375,-0.75706 -5.2,-2.14916 -8.5,-3.09356 -3.3,-0.94439 -9.825,-3.1822 -14.5,-4.97291 -4.675,-1.79071 -13,-4.82998 -18.5,-6.75394 -25.2443,-8.83071 -28.0616,-9.34342 -29.0785,-5.29176 -1.1749,4.68106 0.7754,7.85185 6.6189,10.76081 3.0028,1.49485 6.3596,2.71965 7.4596,2.72177 1.1,0.002 4.7,1.32658 8,2.94322 7.0329,3.44532 12.151,5.11711 15.6661,5.11711 1.3882,0 3.3154,0.87449 4.2826,1.94332 0.9673,1.06883 3.1746,2.24237 4.905,2.60787 1.7305,0.36551 4.4963,1.47485 6.1463,2.4652 1.65,0.99036 5.025,2.31316 7.5,2.93957 2.475,0.6264 5.85,1.74409 7.5,2.48375 1.65,0.73966 5.2026,1.85898 7.8946,2.48738 2.692,0.6284 6.1144,2.01121 7.6054,3.07291 1.4911,1.0617 4.9135,2.45159 7.6055,3.08864 2.692,0.63705 6.9195,2.09698 9.3945,3.2443 5.6169,2.60377 13.9739,5.50413 16.1269,5.59693 1.0347,0.0446 2.4311,-1.79945 3.8363,-5.06581 z m 2.7989,-15.11406 c 1.4401,-1.78766 2.4906,-7.37851 1.797,-9.56382 -0.6298,-1.98431 -6.6058,-4.96324 -15.5591,-7.75583 -3.025,-0.94353 -8.425,-2.82309 -12,-4.17681 -11.5895,-4.3885 -19.4056,-7.07816 -24,-8.2588 -2.475,-0.63601 -7.2,-2.43101 -10.5,-3.98889 -3.3,-1.55787 -7.8,-3.49577 -10,-4.30644 -2.2,-0.81067 -5.8,-2.17099 -8,-3.02294 -10.2074,-3.95282 -23.6588,-8.67647 -24.7077,-8.67647 -0.6384,0 -2.9904,-0.82672 -5.2265,-1.83715 -6.9753,-3.15187 -16.9342,-6.39326 -20.0658,-6.53095 -2.7666,-0.12164 -2.9725,0.10084 -2.6466,2.86048 0.7723,6.54117 3.6601,10.0692 11.3563,13.87444 7.6068,3.761 29.0766,11.63044 31.7484,11.63692 0.8481,0.002 2.9881,0.8855 4.7556,1.96321 1.7675,1.0777 6.0104,2.68417 9.4286,3.56992 3.4182,0.88574 8.4971,2.77811 11.2863,4.20526 2.7893,1.42715 7.3214,3.17823 10.0714,3.89128 4.8002,1.24465 28.3656,9.27001 43,14.64396 8.4079,3.08749 8.012,3.02453 9.2621,1.47263 z m 4.0716,-20.04961 c 1.4275,-1.72004 2.4464,-8.91837 1.4512,-10.25318 -1.3204,-1.77107 -7.4483,-5.10597 -14.2849,-7.77403 -7.4147,-2.89369 -34.2561,-12.16816 -41,-14.16665 -2.475,-0.73345 -7.65,-2.54116 -11.5,-4.01714 -8.5203,-3.26646 -62.1064,-21.47179 -68.8191,-23.38062 -6.4858,-1.84429 -7.4074,-0.81221 -5.2024,5.82632 1.3666,4.11444 2.4148,5.47971 5.3602,6.98113 5.6838,2.89739 38.6689,14.91954 49.6613,18.10013 3.3,0.95484 7.575,2.45072 9.5,3.32417 1.925,0.87345 6.65,2.76238 10.5,4.19761 3.85,1.43524 9.475,3.67371 12.5,4.97439 3.025,1.30068 12.25,4.59668 20.5,7.32445 8.25,2.72777 17.475,6.12596 20.5,7.55154 6.1137,2.88115 9.2193,3.25721 10.8337,1.31188 z m 1.7666,-21.4657 c 1.8527,-1.23704 3.3997,-4.94391 3.3997,-8.1459 0,-2.15655 -0.7413,-3.52843 -2.5455,-4.71056 -2.1779,-1.42703 -28.8708,-10.87413 -37.9545,-13.43276 -1.65,-0.46476 -7.5,-2.48552 -13,-4.49056 -5.5,-2.00505 -12.7,-4.49849 -16,-5.54098 -3.3,-1.0425 -6.7316,-2.31853 -7.6258,-2.83564 -0.8943,-0.51711 -5.3943,-2.38243 -10,-4.14517 -4.6058,-1.76273 -11.1509,-4.2688 -14.5447,-5.56904 -3.3938,-1.30025 -6.6443,-2.36408 -7.2233,-2.36408 -0.5789,0 -2.9772,-0.85797 -5.3294,-1.90659 -7.3751,-3.28782 -32.7314,-11.23946 -33.778,-10.59263 -1.3045,0.80621 -1.2669,4.54874 0.1002,9.97807 1.0089,4.00654 1.6035,4.61332 7.25,7.39839 7.2013,3.5519 18.8685,8.07937 37.651,14.6105 53.3267,18.5429 63.2267,21.92302 69,23.55842 3.575,1.01268 10.775,3.39757 16,5.29975 9.8173,3.57402 12.7154,4.14741 14.6003,2.88878 z m 5.4245,-22.79979 c 1.736,-4.566 1.1893,-7.274 -1.7748,-8.7909 -3.934,-2.01329 -15.782,-6.66893 -22.2368,-8.73792 -3.0323,-0.97192 -7.3132,-2.44718 -9.5132,-3.27835 -2.2,-0.83118 -11.2,-4.048 -20,-7.14849 -17.9179,-6.31302 -27.3607,-9.67478 -42,-14.95264 -5.5,-1.9829 -11.4752,-3.99306 -13.2783,-4.46702 -1.8031,-0.47396 -3.8281,-1.29972 -4.5,-1.83503 -0.6719,-0.5353 -2.5717,-1.21229 -4.2217,-1.50441 -1.65,-0.29213 -9.4368,-2.79464 -17.3039,-5.56115 -7.8672,-2.7665 -15.4663,-5.17153 -16.8867,-5.3445 -6.9575,-0.84719 -4.4148,8.57817 3.3796,12.52789 7.8333,3.96945 29.2009,11.65762 32.3998,11.65762 1.623,0 4.7077,1.10899 6.8549,2.46443 3.9046,2.46486 12.7876,6.0262 18.6921,7.49393 3.19,0.79297 12.6386,4.20785 24.3642,8.80565 12.6318,4.95309 60.5313,21.10763 62.7748,21.17137 1.5544,0.0442 2.5836,-0.74764 3.25,-2.50048 z m 0.8089,-20.29282 c 0.52,-3.67422 -4.1075,-7.71624 -11.2009,-9.78382 -8.8141,-2.56911 -52.6862,-17.56688 -62.1328,-21.24019 -4.4,-1.71095 -9.1586,-3.11245 -10.5748,-3.11444 -2.2966,-0.003 -7.8843,-1.74393 -20.4252,-6.36287 -2.2,-0.81029 -6.925,-2.86059 -10.5,-4.55622 -3.575,-1.69563 -7.0205,-3.08332 -7.6567,-3.08375 -0.6363,-4.3e-4 -4.1657,-1.35079 -7.8433,-3.00079 -3.6775,-1.65 -7.5071,-3 -8.5103,-3 -1.0031,0 -3.9759,-0.92248 -6.6062,-2.04996 -2.6303,-1.12747 -7.0551,-2.13997 -9.8329,-2.25 -4.3742,-0.17325 -5.0891,0.0688 -5.3383,1.80722 -0.5346,3.729 2.2537,5.528 17.2934,11.15768 16.4887,6.17207 18.1782,6.75561 53.2545,18.39414 13.3431,4.42731 28.4181,9.66112 33.5,11.63068 5.0819,1.96957 14.8648,5.54055 21.7398,7.93552 6.875,2.39497 16.1,5.6652 20.5,7.26717 9.7506,3.55005 13.8565,3.62155 14.3337,0.24963 z m 66.6663,-14.17227 c 32.3581,-1.03779 51.5772,-2.53733 64,-4.9935 5.5,-1.08742 13.825,-1.98398 18.5,-1.99234 4.675,-0.008 11.2,-0.66715 14.5,-1.46397 3.3,-0.79682 7.5648,-1.46479 9.4772,-1.48438 1.9124,-0.0196 6.8624,-0.68297 11,-1.47417 4.1376,-0.7912 11.1228,-1.9453 15.5228,-2.56466 12.0153,-1.69133 16.7317,-2.59692 19.5651,-3.75672 1.4108,-0.57747 5.2358,-1.36245 8.5,-1.74439 8.3754,-0.98 25.0539,-6.26383 28.1335,-8.91283 2.2316,-1.91949 2.4954,-2.73522 1.9043,-5.88651 -0.9085,-4.84269 -4.5793,-7.54071 -18.7583,-13.78757 -22.4515,-9.8914 -57.6679,-16.97807 -96.3446,-19.38763 -2.75,-0.17132 -7.025,-0.59149 -9.5,-0.93371 -8.079,-1.11709 -42.2614,-3.77977 -52.5,-4.08956 -5.5,-0.16642 -24.175,-0.31776 -41.5,-0.33632 -17.325,-0.0186 -35.325,-0.0825 -40,-0.14205 -4.675,-0.0596 -14.575,0.41203 -22,1.04799 -7.425,0.63596 -19.125,1.49826 -26,1.91621 -21.3505,1.29798 -50.265,3.9672 -55.5,5.12346 -2.75,0.6074 -7.7,1.28972 -11,1.51627 -12.8938,0.88519 -35.0585,3.66571 -36.1467,4.53455 -1.7596,1.40481 -0.4004,4.76971 2.5238,6.24842 1.4426,0.72947 4.4229,1.64416 6.6229,2.03266 2.2,0.38849 10.3,2.74438 18,5.2353 7.7,2.49093 19.175,6.12138 25.5,8.06766 6.325,1.94629 12.3934,3.99546 13.4853,4.55372 2.234,1.14221 19.6576,6.72186 32.5147,10.41237 4.675,1.34191 14.35,4.43007 21.5,6.86258 7.15,2.43251 15.25,5.05966 18,5.83811 2.75,0.77845 8.7337,2.78052 13.2971,4.44906 4.5633,1.66853 10.4133,3.33986 13,3.71406 2.5866,0.3742 5.1644,1.04482 5.7283,1.49026 1.4675,1.15903 9.9695,1.75626 16.9746,1.19239 3.3,-0.26563 17.25,-0.84377 31,-1.28476 z m -352,136.09157 c -1.1,-0.50644 -3.8723,-0.95244 -6.1608,-0.99109 -2.8046,-0.0474 -7.3212,-1.59817 -13.856,-4.75749 -8.8929,-4.29931 -10.3278,-5.41447 -17.3392,-13.47511 -13.2044,-15.18041 -16.126,-18.84314 -19.2738,-24.16301 -1.6841,-2.84607 -5.8313,-9.56708 -9.216,-14.93557 -3.3848,-5.36849 -8.4042,-13.33766 -11.1542,-17.70927 -2.75,-4.37161 -5.586,-8.18663 -6.3024,-8.47783 -0.7163,-0.2912 -2.3689,0.16939 -3.6725,1.02353 -1.3036,0.85414 -4.7675,1.80017 -7.6976,2.1023 -6.8943,0.71088 -9.3227,-1.16059 -11.2607,-8.67784 -0.7798,-3.025 -2.1236,-6.85 -2.9862,-8.5 -0.8625,-1.65 -1.571,-3.77879 -1.5744,-4.73065 -0.01,-2.6222 -7.6337,-18.12234 -9.941597,-20.21095 -2.5257,-2.28571 -3.6993,-1.45422 -8.8058,6.23904 -4.474698,6.74142 -9.240198,10.27472 -17.045098,12.63787 -6.7768,2.05185 -10.8957,1.66764 -16.091,-1.50095 -3.3026,-2.01425 -3.3595,-2.16355 -2.5749,-6.74709 1.5074,-8.80476 1.3528,-22.39965 -0.3204,-28.18727 -2.2073,-7.63484 -3.1512,-8.5186 -7.4414,-6.96722 -5.3718,1.94244 -14.1983,0.46428 -18.1112,-3.03306 -2.8891,-2.58226 -3.1549,-3.31524 -2.9539,-8.14715 0.1215,-2.92028 -0.494,-7.56927 -1.3678,-10.33109 -0.8737,-2.76181 -1.9434,-8.62148 -2.3769,-13.02148 -1.148,-11.65095 -4.6377,-24.14769 -8.1814,-29.29825 -3.3633,-4.88852 -7.1982002,-17.51784 -8.6697002,-28.55194 -1.2809,-9.60526 -0.01,-23.04271 2.4829,-26.16887 9.5595002,-12.00728 17.2971002,-22.60638 17.9077002,-24.53013 0.4074,-1.28371 2.4538,-4.50121 4.5476,-7.15001 2.0937,-2.64879 4.1264,-5.82507 4.5171,-7.0584 0.3906,-1.23332 2.6032,-5.1674 4.9168,-8.7424 6.5245,-10.08164 10.1083,-16.84335 13.2505,-25 1.682,-4.36612 4.4265,-9.1714 6.5682,-11.5 2.0234,-2.2 4.3341,-5.37375 5.1349,-7.05277 1.7693,-3.70995 3.8342,-5.59619 8.9537,-8.17918 2.3811,-1.20137 4.5269,-3.28134 5.5,-5.33118 1.7734,-3.73586 3.8886,-4.69754 16.274198,-7.39899 7.423097,-1.61907 21.927297,-8.23524 28.321297,-12.91898 1.65,-1.20865 5.025,-3.0737 7.5,-4.14457 4.6751,-2.02277 35.8712,-19.01512 42,-22.87719 1.925,-1.21302 5.7487,-3.0483 8.4971,-4.07839 2.7484,-1.030092 7.2484,-3.952052 10,-6.493242 13.1267,-12.12289 31.3224,-22.99046 43.0029,-25.68394 3.6589,-0.84372 17.1204,-1.74256 34.5,-2.30361 28.4076,-0.91705 35.8871,-1.5729 52,-4.559663 4.675,-0.86658 10.525,-1.94686 13,-2.40062 21.9016,-4.01542 24.5645,-4.60139 41,-9.02223 4.125,-1.10954 13.35,-3.39078 20.5,-5.06941 7.15,-1.67863 14.6273,-3.4872 16.6161,-4.01905 1.9888,-0.53184 4.7067,-0.96699 6.0399,-0.96699 1.3331,0 5.1059,-0.73411 8.3839,-1.63135 10.1243,-2.77114 21.3889,-5.26421 35.4601,-7.84799 7.425,-1.36339 15.75,-3.11339 18.5,-3.88888 2.75,-0.7755 7.7,-2.17177 11,-3.10283 11.0051,-3.10496 20.9223,-5.33802 29,-6.52999 7.8513,-1.15855 11.413,-1.84933 30.5,-5.91545 5.225,-1.1130899 15.35,-2.4881899 22.5,-3.0557799 7.15,-0.5676 17.8092,-1.53693 23.6871,-2.15407 11.929,-1.25246 16.1247,-0.73881 15.6185,1.91207 -0.3699,1.93698 -8.207,4.5595299 -21.3056,7.1295599 -2.2,0.43166 -6.6064,1.56473 -9.792,2.51795 -4.1779,1.25012 -6.5467,1.47175 -8.5,0.79527 -3.2325,-1.11951 -15.6921,0.15568 -22.208,2.27287 -2.475,0.80421 -8.325,1.92277 -13,2.4857 -4.675,0.56292 -13.45,2.32941 -19.5,3.92553 -6.05,1.59611 -13.925,3.58096 -17.5,4.41076 -3.575,0.8298 -9.65,2.3918 -13.5,3.47111 -3.85,1.07931 -9.25,2.52821 -12,3.21977 -2.75,0.69157 -7.25,2.04675 -10,3.01153 -5.1479,1.80605 -13.6733,3.30089 -28.5,4.9972 -9.7121,1.11117 -26.1378,4.58462 -40,8.45858 -8.9846,2.51088 -12.6263,3.28808 -25.3721,5.41484 -2.9547,0.49301 -6.3914,1.44188 -7.6372,2.10858 -1.2511,0.6696 -3.8017,0.96282 -5.6981,0.65508 -1.8882,-0.30642 -4.639,-0.0943 -6.1128,0.47134 -2.5609,0.98286 -15.4576,3.134113 -38.1798,6.368633 -5.775,0.82208 -13.2,1.93493 -16.5,2.47301 -3.3,0.53808 -11.316,1.43035 -17.8134,1.98282 -6.4973,0.55247 -12.1372,1.20465 -12.5331,1.44928 -0.3958,0.24464 -5.4468,0.6884 -11.2243,0.98614 -13.4058,0.69086 -20.6489,2.58011 -33.2733,8.67874 -10.512,5.07818 -22.102,13.60949 -23.2034,17.079872 -0.6847,2.1573 -6.0208,5.84034 -8.4703,5.84637 -0.8348,0.002 -3.1735,1.12874 -5.197,2.50374 -2.0235,1.375 -4.2724,2.5 -4.9976,2.5 -0.7252,0 -3.3365,1.12725 -5.803,2.50501 -2.4665,1.37775 -8.6612,4.52849 -13.766,7.00163 -5.1049,2.47315 -11.5578,6.29589 -14.3398,8.495 -2.7821,2.1991 -5.4772,3.99836 -5.9891,3.99836 -2.0887,0 -18.6013,8.52745 -21.3897,11.04605 -3.529,3.18759 -18.0512,9.55688 -24.564297,10.77366 -3.9165,0.73169 -5.8223,2.09992 -13.602198,9.7656 -8.1729,8.05284 -10.2123,10.86613 -16.974,23.41469 -0.7409,1.375 -1.3499,2.97831 -1.3533,3.56291 0,0.5846 -1.4035,2.3846 -3.1114,4 -1.7078,1.6154 -4.0703,4.78726 -5.25,7.04857 -3.9393,7.55152 -7.6416,13.80711 -14.1383,23.88852 -3.5443,5.5 -9.4172,14.87807 -13.0508,20.84016 -3.6336,5.96208 -8.1915,12.91662 -10.1287,15.45452 -2.994,3.92232 -3.4315,5.14612 -2.9173,8.15985 0.3327,1.95001 1.2574,8.04547 2.0549,13.54547 1.2485,8.61061 6.1141,26.17883 11.0876,40.03343 0.7963,2.21839 1.4478,6.62034 1.4478,9.78212 0,3.16178 0.675,7.36419 1.5,9.33869 0.825,1.97451 1.5068,4.99755 1.5151,6.71788 0.01,1.72034 0.6383,4.92788 1.4,7.12788 1.8018,5.20393 4.5329,5.57152 12.2484,1.64861 7.455,-3.79045 11.8596,-8.46337 13.336,-14.14861 0.6427,-2.475 1.864,-6.65706 2.7139,-9.29347 1.2691,-3.93668 1.3434,-5.79858 0.416,-10.41678 -0.6212,-3.09282 -1.1294,-7.06047 -1.1294,-8.81698 0,-1.75753 -1.1242,-4.85029 -2.5,-6.87763 -1.375,-2.02618 -2.5,-4.00951 -2.5,-4.40741 0,-0.39791 -1.2108,-2.50545 -2.6908,-4.68343 -2.4681,-3.63209 -2.6947,-4.78976 -2.7371,-13.98213 -0.039,-8.5108 0.2911,-10.65707 2.1909,-14.23233 2.7416,-5.15972 2.8064,-6.91476 0.3048,-8.25359 -4.0055,-2.14367 -3.3458,-8.03625 0.8997,-8.03625 0.9474,0 2.5371,-0.9 3.5325,-2 2.3645,-2.61272 2.806,-2.54823 6.8473,1 4.2604,3.74075 5.6785,3.74075 12.3067,0 2.9237,-1.65 6.1676,-3 7.2088,-3 3.056898,0 9.416598,-2.97787 12.428298,-5.81943 1.5351,-1.44837 4.147297,-4.74698 5.804997,-7.33025 1.6577,-2.58327 4.4983,-5.82899 6.3124,-7.21271 1.8142,-1.38372 3.8476,-4.00575 4.5187,-5.82673 0.6711,-1.82099 1.8604,-4.66088 2.6429,-6.31088 3.1305,-6.60145 2.9038,-8.68004 -1.4911,-13.67301 -4.5905,-5.21505 -4.9573,-6.94868 -2.079,-9.82699 2.7336,-2.73353 5.6584,-2.50877 8.3695,0.64316 6.0307,7.01103 30.807,4.68592 51.6305,-4.84522 10.5542,-4.83075 20.5632,-8.79794 22.1966,-8.79794 0.9666,0 2.4786,-1.10075 3.3601,-2.4461 0.9427,-1.4387 3.6691,-3.13243 6.62,-4.11258 4.8492,-1.61065 4.997,-1.77158 4.4124,-4.8039 -0.3326,-1.72558 -0.8937,-5.16242 -1.2468,-7.63742 -0.4669,-3.27309 -1.7242,-5.72691 -4.6115,-9 -2.1833,-2.475 -4.4251,-5.4838 -4.9817,-6.68623 -1.2479,-2.69581 -0.3581,-5.31377 1.8061,-5.31377 1.9507,0 10.1223,5.71712 10.8382,7.58277 0.2801,0.72978 2.4436,2.30667 4.8079,3.5042 2.3643,1.19753 5.8765,3.59257 7.8049,5.32231 2.8603,2.56559 11.3073,6.2913 20.7665,9.15946 1.9643,0.59558 2.6857,3.52268 1.1231,4.55666 -1.6693,1.10457 -11.6441,0.15049 -17.8165,-1.70412 -2.4314,-0.73057 -4.7546,-1.1219 -5.1628,-0.86963 -0.4082,0.25227 2.174,4.84385 5.7382,10.20351 3.5642,5.35966 6.7389,11.02115 7.0551,12.58109 0.3343,1.64993 1.5609,3.28559 2.9325,3.91052 3.0366,1.38355 2.9768,3.37798 -0.2433,8.11677 -2.0482,3.01416 -4.7584,4.86234 -12.75,8.69473 -5.5819,2.6768 -13.0266,6.45875 -16.5438,8.40432 -3.5171,1.94558 -7.4691,3.53741 -8.7821,3.53741 -1.313,0 -4.0028,0.675 -5.9773,1.5 -1.9745,0.825 -4.9975,1.50781 -6.7179,1.51736 -9.4166,0.0523 -26.5646,6.12735 -28.7332,10.17943 -1.4161,2.64605 -0.2916,3.74117 12.5572,12.22904 5.8512,3.86527 11.0242,6.57417 12.5542,6.57417 1.4313,0 4.6531,-1.30055 7.1596,-2.89012 2.5065,-1.58956 5.9435,-3.19459 7.6379,-3.56673 1.6943,-0.37214 5.0057,-2.10909 7.3585,-3.85989 6.4452,-4.79601 16.8393,-11.38285 21.3379,-13.52202 2.2,-1.04613 4.8573,-2.86038 5.905,-4.03165 1.0478,-1.17128 2.6802,-2.12959 3.6276,-2.12959 2.4145,0 4.2495,2.53602 3.5133,4.8555 -0.7855,2.47484 -14.8461,13.40747 -20.0284,15.57276 -2.1541,0.90005 -6.1983,3.39681 -8.9871,5.54834 -3.1556,2.43452 -6.9513,4.31348 -10.0505,4.97526 -2.7389,0.58486 -5.9924,1.29352 -7.2299,1.57481 -3.9074,0.88819 -2.4812,3.77499 4.0317,8.16024 9.2168,6.20584 8.8807,6.20245 15.4205,0.15554 3.1779,-2.93835 6.3898,-6.15757 7.1376,-7.15384 0.7478,-0.99626 4.5666,-3.37211 8.4862,-5.27966 3.9196,-1.90756 8.2622,-4.53932 9.6503,-5.84836 1.3881,-1.30905 6.5737,-5.09248 11.5237,-8.40764 4.95,-3.31516 11.1528,-8.19327 13.7839,-10.84026 14.2791,-14.36506 16.8128,-17.32058 19.1465,-22.33422 3.54,-7.605 3.3259,-9.58749 -1.5177,-14.05913 -4.3424,-4.0089 -4.9051,-7.12313 -1.4012,-7.75492 6.1767,-1.11371 3.2348,-5.73565 -9.9652,-15.65581 -9.3782,-7.04801 -26.3978,-23.54714 -28.6212,-27.74597 -1.3221,-2.49673 -2.0311,-8.76264 -0.9916,-8.76264 0.5632,0 4.2245,3.15 8.1361,7 3.9116,3.85 7.7042,7 8.4281,7 0.7238,0 3.1999,2.25 5.5023,5 2.3025,2.75 4.5963,5 5.0974,5 0.5011,0 4.1215,2.46307 8.0453,5.47348 7.246,5.55934 8.8573,5.99626 8.8573,2.40176 0,-2.842 1.8133,-5.87524 3.5122,-5.87524 3.2801,0 4.9543,4.99427 5.0319,15.01054 0.061,7.88277 0.475,10.41336 2.2653,13.84819 2.5785,4.94702 2.7332,8.63803 0.6906,16.47996 -0.825,3.16739 -1.5,6.77061 -1.5,8.00715 0,1.31848 -1.6885,3.88304 -4.0829,6.20121 -2.2456,2.17412 -4.8331,5.34219 -5.75,7.04015 -2.1445,3.9713 -18.1059,18.9421 -21.2582,19.93889 -1.3249,0.41893 -3.7589,1.7697 -5.4089,3.00173 -1.65,1.23203 -4.0068,2.54582 -5.2375,2.91955 -4.2882,1.30224 -11.3778,5.799 -12.9672,8.2248 -0.8804,1.34367 -3.332,3.32626 -5.448,4.40576 -2.116,1.07949 -3.8473,2.30655 -3.8473,2.72679 0,0.42023 -1.4625,1.61466 -3.25,2.65427 -5.8073,3.37755 -11.8475,8.81772 -13.8448,12.46939 -1.0744,1.96439 -4.6875,6.72162 -8.029,10.57162 -6.4926,7.4806 -12.8762,18.854 -12.8762,22.94111 0,1.37007 -0.7516,4.06728 -1.6703,5.99379 -1.4726,3.08807 -1.5086,4.00959 -0.3041,7.78393 1.5174,4.75474 7.1784,10.70099 12.6674,13.30572 3.4702,1.64671 3.6031,1.62534 10.1616,-1.63427 3.655,-1.81654 8.4454,-4.48843 10.6454,-5.93754 2.2,-1.44911 6.475,-3.7649 9.5,-5.1462 3.025,-1.3813 7.7418,-4.37785 10.4817,-6.659 2.7399,-2.28115 5.3862,-4.14754 5.8806,-4.14754 0.4944,0 3.0912,-1.575 5.7706,-3.5 2.6795,-1.925 5.2951,-3.5 5.8125,-3.5 1.5314,0 12.9648,-11.01076 16.0162,-15.4242 1.5499,-2.24169 4.6822,-5.2008 6.9605,-6.5758 2.2784,-1.375 5.3655,-3.51195 6.8602,-4.74878 1.4948,-1.23683 3.2169,-2.24933 3.8269,-2.25 1.7795,-0.002 16.6084,-7.02271 19.8908,-9.4173 1.65,-1.20372 7.0133,-3.7212 11.9184,-5.59441 7.3456,-2.80524 10.4317,-3.4383 17.5,-3.58992 4.9509,-0.10621 10.4349,-0.86498 12.962,-1.79347 2.4092,-0.88517 7.3016,-2.07606 10.8721,-2.64644 3.5704,-0.57038 9.1232,-2.14465 12.3395,-3.49837 3.2163,-1.35372 6.9257,-2.46131 8.2431,-2.46131 1.3174,0 3.5394,-0.9 4.9378,-2 1.3984,-1.1 3.8557,-2 5.4605,-2 4.6181,0 23.6658,-7.14277 33.7666,-12.66227 1.65,-0.90163 4.35,-2.32278 6,-3.15812 10.9735,-5.55553 24.7814,-14.15964 46.4628,-28.95247 7.0822,-4.83206 16.857,-13.97961 18.6574,-17.46021 0.7775,-1.50319 2.7915,-3.44558 4.4755,-4.31642 1.7327,-0.89598 3.6882,-3.08228 4.5046,-5.03616 0.7934,-1.89904 4.3819,-6.65566 7.9743,-10.57026 3.5925,-3.9146 8.169,-9.9642 10.1702,-13.44356 3.0675,-5.33349 4.562,-6.81838 9.5244,-9.46332 6.1495,-3.27765 11.7151,-4.02508 14.2579,-1.91477 2.4818,2.05971 1.7168,2.99243 -4.9239,6.00346 -3.9581,1.79469 -7.5799,4.33571 -9.5,6.66513 -3.4874,4.23077 -4.1188,6.93971 -1.3532,5.80487 5.3933,-2.21301 6.9295,1.02797 2.4862,5.24509 -1.5988,1.51745 -3.8615,4.35548 -5.0281,6.30672 -1.1666,1.95123 -3.953,5.01984 -6.192,6.81911 -2.2389,1.79927 -5.0209,5.29263 -6.1821,7.76302 -2.0299,4.31842 -13.8407,16.0545 -17.6298,17.51828 -0.9373,0.36207 -5.5292,3.8986 -10.2042,7.85895 -5.619,4.76007 -11.7199,8.75095 -18,11.77469 -5.225,2.51573 -11.75,5.90128 -14.5,7.52344 -10.2007,6.01717 -27.403,14.69551 -29.1722,14.71704 -1.0053,0.0122 -2.9528,0.90222 -4.3278,1.97776 -1.375,1.07554 -2.8968,1.96553 -3.3819,1.97776 -0.4851,0.0122 -2.5101,1.03318 -4.5,2.26876 -4.5391,2.81843 -22.7426,9.75348 -25.6014,9.75348 -1.1739,0 -2.9795,0.61798 -4.0125,1.37328 -1.8249,1.33444 -1.8207,1.39146 0.1478,2.01627 2.9399,0.93308 25.2344,-0.0738 29.3414,-1.32516 1.9214,-0.58542 5.2964,-1.06526 7.5,-1.06632 2.2037,-10e-4 8.2816,-1.0706 13.5066,-2.37674 14.0471,-3.51146 47.6928,-13.44315 52.9396,-15.62693 2.5083,-1.04394 6.5854,-2.4138 9.0604,-3.04412 4.6714,-1.18968 12.3951,-4.28586 15,-6.01303 0.825,-0.547 2.7815,-1.76915 4.3477,-2.7159 1.5662,-0.94674 6.2458,-4.42135 10.3991,-7.72135 4.1533,-3.3 9.2583,-7.35 11.3444,-9 2.0862,-1.65 5.6529,-5.13253 7.9262,-7.73896 2.2732,-2.60642 6.5743,-6.19906 9.5579,-7.98363 2.9836,-1.78457 5.4247,-3.55696 5.4247,-3.93864 0,-0.38168 2.5875,-2.27305 5.75,-4.20306 3.1625,-1.93 7.6824,-5.32091 10.0442,-7.53537 2.7335,-2.56296 5.641,-4.26259 8,-4.67648 7.5895,-1.33162 16.083,-3.29647 29.44,-6.81056 7.5538,-1.98731 15.2517,-3.6133 17.1066,-3.6133 2.1553,0 7.4844,-2.12152 14.7658,-5.87826 6.2664,-3.23305 13.1934,-6.4306 15.3934,-7.10567 2.2,-0.67508 6.4101,-2.34054 9.3557,-3.70104 4.3589,-2.01322 6.2449,-2.35134 10.1329,-1.81661 3.9999,0.55014 5.9909,0.15171 12.2384,-2.44913 4.1169,-1.71389 8.2035,-2.82134 9.1172,-2.47073 2.5269,0.96966 1.9761,4.06759 -1.0942,6.15423 -2.986,2.02938 -15.7635,6.98615 -29.25,11.34686 -10.5427,3.40892 -26.182,9.3187 -31.5,11.90327 -2.2,1.06921 -10.975,4.18745 -19.5,6.92941 -18.5911,5.97962 -42.1469,17.64142 -53.7046,26.58767 -4.2632,3.3 -12.2613,10.52864 -17.7734,16.06366 -7.1848,7.21466 -11.8621,10.99838 -16.522,13.36545 -3.575,1.816 -8.3,4.21693 -10.5,5.3354 -6.2442,3.17456 -29.7476,11.73107 -32.2297,11.7334 -1.2264,10e-4 -3.9264,0.65322 -6,1.44904 -2.0736,0.79582 -8.1257,2.36557 -13.4489,3.48833 -5.3233,1.12276 -14.9983,3.41864 -21.5,5.10196 -6.5018,1.68332 -19.6964,4.42474 -29.3214,6.09206 -14.8691,2.57576 -20.6221,3.07953 -38.2683,3.35105 -19.5595,0.30096 -20.8276,0.20897 -21.7852,-1.58039 -1.2364,-2.31023 -2.9456,-2.35048 -13.3467,-0.31429 -10.5768,2.0706 -21.0807,5.62655 -31.5998,10.69773 -4.675,2.25379 -12.8263,6.14953 -18.114,8.6572 -5.2877,2.50767 -13.5275,7.0344 -18.3106,10.0594 l -8.6967,5.5 0.5221,4.82192 c 0.2871,2.65206 1.6644,7.23669 3.0606,10.18808 1.3963,2.95138 2.5386,6.69957 2.5386,8.3293 0,2.30978 0.7497,3.40543 3.3997,4.96897 3.1975,1.88659 9.4198,9.97633 12.8386,16.69173 2.3816,4.67816 3.1063,12.87393 1.7664,19.9754 -1.7364,9.20264 -3.7205,10.81132 -14.5047,11.76054 l -3,0.26406 -0.1818,16.5 c -0.2427,22.02321 -2.1855,49.41995 -3.7822,53.33641 -0.7093,1.73997 -1.607,5.36318 -1.9948,8.05158 -1.0899,7.55568 -14.2405,35.61201 -16.6921,35.61201 -0.4141,0 -2.1653,2.05277 -3.8915,4.5617 -2.6932,3.91445 -4.651,5.27623 -13.798,9.59751 -11.0294,5.21054 -20.0813,7.01001 -24.6596,4.90217 z m 18.0224,-16.91205 c 6.4818,-3.06646 13.342,-9.82934 17.9544,-17.69993 3.1711,-5.41104 7.895,-19.50418 10.7091,-31.9494 4.227,-18.6933 3.168,-122.75394 -1.3041,-128.14244 -1.9678,-2.37105 -9.5702,0.49391 -15.9977,6.02871 -1.9888,1.71255 -8.6588,5.81373 -14.8223,9.11373 -6.1634,3.3 -15.4095,8.5875 -20.5467,11.75 -5.1372,3.1625 -10.4164,5.75 -11.7314,5.75 -3.31,0 -11.8631,-4.41891 -14.9867,-7.74276 -1.4251,-1.51648 -4.0183,-6.35598 -5.7627,-10.75445 -1.7445,-4.39846 -3.8115,-8.70419 -4.5935,-9.56828 -1.5535,-1.71654 -10.8237,-3.39135 -27.4408,-4.95762 -15.8085,-1.49007 -24.8228,-2.81174 -26.9532,-3.95185 -1.0534,-0.56377 -3.5181,-1.02504 -5.477,-1.02504 -1.959,0 -6.1511,-0.88778 -9.3158,-1.97284 -3.1647,-1.08505 -9.353997,-2.84197 -13.753997,-3.90425 -4.4,-1.06227 -9.707298,-2.66381 -11.793998,-3.55897 -7.4301,-3.18739 -6.9205,-0.62957 3.2748,16.43606 3.449998,5.775 7.502698,12.3 9.005898,14.5 1.5032,2.2 4.8982,7.6 7.544397,12 2.6462,4.4 8.0406,12.725 11.9875,18.5 3.947,5.775 8.8812,13.65 10.9649,17.5 3.4803,6.4305 10.4382,17.87529 15.108,24.85081 3.2894,4.91346 9.1513,14.88333 12.7854,21.74531 1.9213,3.62787 4.5759,7.90287 5.8991,9.5 1.3233,1.59713 3.6875,5.15388 5.2539,7.90388 1.5664,2.75 3.9283,6.35 5.2487,8 2.8315,3.5384 8.2353,12.27863 11.258,18.20931 2.7917,5.47727 15.5092,17.5201 21.9464,20.78207 7.121,3.60845 14.3954,5.36658 22.517,5.44202 5.706,0.053 8.1134,-0.46167 13.0224,-2.78407 z m -28.4728,-8.90809 c -3.9514,-3.19967 -0.2555,-7.08398 5.3918,-5.66661 3.9327,0.98705 5.1059,3.92863 2.3397,5.8662 -2.893,2.02627 -5.0515,1.97055 -7.7315,-0.19959 z m -8.7827,-20.08607 c -10.2679,-2.63387 -12.3983,-4.08691 -10.0829,-6.87686 2.5274,-3.04525 23.9271,1.31494 24.6368,5.01973 0.3907,2.03968 -1.499,4.75721 -3.1932,4.59202 -0.6202,-0.0605 -5.7325,-1.29116 -11.3607,-2.73489 z m -11.3933,-23.48539 c -8.1854,-2.68027 -10.405,-4.32453 -8.666,-6.41986 0.9522,-1.14738 2.8608,-1.38019 8.4005,-1.02468 8.6592,0.55572 13.8919,3.1287 13.8919,6.83081 0,2.09408 -0.501,2.46826 -3.5,2.61373 -1.925,0.0934 -6.4818,-0.80661 -10.1264,-2 z m -11.3736,-26.19778 c -2.2,-0.72506 -5.0895,-1.35288 -6.4212,-1.39515 -3.0086,-0.0955 -6.1261,-2.78985 -5.4043,-4.67081 0.8,-2.08476 9.3607,-1.77808 17.4275,0.62432 7.3936,2.20192 8.7233,3.27033 6.8617,5.51344 -1.4662,1.7667 -6.9816,1.73493 -12.4637,-0.0718 z m -20.3625,-29.42428 c -9.3404,-1.78967 -11.9856,-3.32086 -9.9578,-5.76418 1.4156,-1.70571 6.3821,-1.62343 12.4114,0.20564 2.6999,0.81904 7.4104,1.49404 10.4678,1.5 6.2547,0.0122 10.0492,1.84631 7.7564,3.74914 -2.4369,2.02247 -11.0635,2.15155 -20.6778,0.3094 z m -7.1375,-26.1397 c -6.325,-0.41937 -13.4487,-1.19143 -15.8304,-1.71569 -4.4242,-0.97384 -7.0392,-2.65604 -5.8999,-3.79537 0.5917,-0.59167 29.8375,2.03107 35.9803,3.2267 1.5125,0.29439 2.75,1.1745 2.75,1.9558 0,0.92295 -0.9632,1.36283 -2.75,1.2558 -1.5125,-0.0906 -7.925,-0.50787 -14.25,-0.92724 z m -16.8662,-22.9822 c -1.3015,-0.52107 -4.4172,-1.1936 -6.9239,-1.4945 -5.3955,-0.64767 -8.4868,-2.10921 -7.9297,-3.74902 0.5156,-1.51733 8.0417,-0.96794 12.592,0.91918 1.8546,0.76918 5.1429,1.39852 7.3071,1.39852 4.6195,0 12.6192,1.86486 13.3968,3.123 0.7269,1.17614 -15.4441,1.00325 -18.4423,-0.19718 z m -5.7023,80.74798 c 2.2501,-1.64531 1.7353,-3.45358 -3.0414,-10.68277 -1.9955,-3.02006 -4.2475,-7.56255 -5.0043,-10.09441 -0.7569,-2.53186 -2.4095,-6.13186 -3.6724,-8 -1.263,-1.86814 -3.7333,-5.87162 -5.4896,-8.89662 -1.7563,-3.025 -5.2079,-7.75 -7.6701,-10.5 l -4.476797,-5 -0.037,3 c -0.024,1.93815 2.009297,6.36253 5.744497,12.5 5.2153,8.56936 11.5371,21.22262 17.112,34.25 2.1158,4.94433 3.479,5.65851 6.5352,3.4238 z M 76.226625,405.16354 c 8.0302,-2.2913 9.7834,-4.27969 11.705798,-13.27609 0.8945,-4.18585 2.7554,-11.25446 4.1354,-15.70802 l 2.5091,-8.09738 -2.0504,-4.01909 c -1.1277,-2.2105 -3.1182,-5.31668 -4.4233,-6.90262 -1.305,-1.58594 -3.832298,-5.46705 -5.616098,-8.62469 -2.9738,-5.2642 -6.3139,-8.75884 -8.3715,-8.75884 -1.1127,0 -6.7333,12.02341 -6.7343,14.40561 -4e-4,1.04808 -1.0575,3.29808 -2.349,5 -4.215,5.55414 -4.9327,9.49104 -3.3032,18.12068 0.9754,5.16578 1.1561,8.71399 0.5513,10.82293 -0.4949,1.72567 -0.8999,6.19255 -0.8999,9.9264 0,6.10563 0.2265,6.87984 2.25,7.69322 3.3487,1.34597 6.3202,1.20865 12.5961,-0.58211 z M 292.80912,377.20538 c 2.2749,-2.2749 1.9329,-7.36232 -0.9301,-13.83611 -2.5729,-5.81788 -5.0615,-7.91742 -6.5431,-5.52017 -1.2216,1.97653 -2.2945,13.44019 -1.5395,16.44841 0.99,3.94466 6.2718,5.64878 9.0127,2.90787 z m -111.575,-62.22293 c 1.0944,-1.5369 3.1253,-5.36191 4.5131,-8.50003 1.3878,-3.13811 4.3481,-8.25391 6.5783,-11.36843 2.2303,-3.11452 4.055,-6.17623 4.055,-6.8038 0,-1.65131 -5.9201,-7.01846 -10,-9.06596 -1.925,-0.96607 -5.975,-3.41973 -9,-5.45258 -3.025,-2.03286 -12.9421,-7.98537 -22.0381,-13.22781 l -16.5381,-9.53171 -7.0915,0.65001 c -3.9004,0.35751 -7.7381,1.1866 -8.5283,1.84243 -0.7903,0.65584 -6.8039,2.57628 -13.3637,4.26765 -12.421797,3.20281 -27.689895,9.61037 -36.826195,15.45478 -5.2511,3.35908 -8.6141,8.13575 -8.6141,12.23516 0,2.21257 4.8269,10.07204 7.5987,12.37287 5.7807,4.79831 24.502098,11.79594 33.094495,12.36996 2.6438,0.17662 10.6568,1.29095 17.8068,2.4763 24.8682,4.12271 31.0746,4.82607 43.682,4.95043 l 12.6819,0.12509 1.9897,-2.79436 z m 200.1464,-40.20564 c 1.1733,-0.7582 0.9138,-0.97271 -1.1909,-0.98469 -1.4801,-0.008 -2.9691,0.43469 -3.3091,0.98469 -0.7891,1.2769 2.5242,1.2769 4.5,0 z m -255.5,-32.87882 c 5.6945,-2.59722 10.9086,-4.65704 14.7245,-5.81693 0.9485,-0.2883 3.7673,0.67297 6.2641,2.13615 5.0438,2.9559 6.5114,2.69574 6.5114,-1.15425 0,-1.71324 1.3163,-3.84798 3.8715,-6.27861 3.3541,-3.19076 5.5251,-4.11461 16.25,-6.91506 12.8455,-3.35422 25.4289,-7.77568 31.7094,-11.14182 2.0017,-1.07286 4.9962,-1.95102 6.6543,-1.95145 3.1931,-8.3e-4 14.7971,-5.0288 15.9642,-6.91719 0.3796,-0.61427 0.3769,-3.62412 -0.01,-6.68856 -0.6166,-4.93466 -1.3041,-6.21897 -6.0127,-11.23259 -5.1798,-5.51527 -5.3546,-5.60796 -6.7953,-3.60369 -2.208,3.07183 -13.3842,10.44282 -15.8337,10.44282 -1.1746,0 -5.0979,1.6335 -8.7186,3.63 -8.9118,4.9141 -15.9676,7.32525 -26.0831,8.91322 -4.675,0.73391 -11.2,2.53258 -14.5,3.99704 -3.3,1.46447 -8.8225,3.25462 -12.2724,3.9781 -7.4001,1.55194 -9.0918,3.21723 -12.6935,12.49568 -1.4605,3.76256 -4.473,8.73681 -7.1319,11.77634 -3.8239,4.37129 -4.3931,5.51564 -3.3616,6.75854 1.4465,1.74281 3.0691,1.39905 11.4594,-2.42774 z m 112.4388,77.05577 c -2.2084,-1.1296 -4.1853,-3.47213 -6.0567,-7.17695 -4.2395,-8.39316 -7.8278,-9.16395 -18.3041,-3.93182 -7.2479,3.61977 -9.8822,0.61404 -5.328,-6.07909 1.6316,-2.39786 3.7617,-3.80499 7.75,-5.11973 3.025,-0.99717 6.3306,-1.82572 7.3458,-1.8412 3.3,-0.0504 7.0761,3.05689 11.0271,9.07388 2.1301,3.24388 4.4604,5.89796 5.1786,5.89796 2.3369,0 4.4485,3.06847 4.4485,6.46444 0,4.11983 -1.7654,4.90988 -6.0612,2.71251 z m 13.6535,-31.42695 c -3.4679,-3.09729 -7.0541,-12.48853 -5.4891,-14.37428 1.4149,-1.70483 3.8968,-0.0772 3.8968,2.55555 0,0.92751 1.575,4.30193 3.5,7.49871 1.925,3.19678 3.5,5.98281 3.5,6.19117 0,1.18357 -3.2444,0.0609 -5.4077,-1.87115 z m 17.863,-4.37764 c -2.7774,-6.96153 -3.7038,-8.26335 -6.5986,-9.2725 -1.5712,-0.5477 -2.8567,-1.48335 -2.8567,-2.07923 0,-1.9969 3.1503,-2.31939 6.5978,-0.67541 5.9898,2.85634 9.5294,11.64454 5.9023,14.6547 -1.2662,1.05087 -1.7405,0.64151 -3.0448,-2.62756 z m 307.206,-120.71924 c -7.3085,-2.00747 -11.3602,-4.71317 -10.1033,-6.74693 0.2717,-0.43954 2.3388,-0.14825 4.5937,0.64732 2.3156,0.81699 7.7159,1.44649 12.409,1.44649 12.5356,0 17.9287,-2.96107 8.1841,-4.4935 -8.6421,-1.35906 -11.8328,-2.57058 -12.665,-4.80895 -1.0322,-2.7765 -0.3976,-4.45706 2.2098,-5.85253 1.7641,-0.9441 2.4405,-0.62631 4.7875,2.24939 3.136,3.84243 3.3389,3.85741 24.6166,1.81741 6.7065,-0.64299 12.9739,-0.86965 13.9275,-0.5037 1.6205,0.62186 1.6246,0.7747 0.062,2.33736 -1.8768,1.87684 -14.2824,5.14827 -19.7664,5.21253 -4.1734,0.0489 -5.3256,0.84436 -3.8312,2.64494 1.7082,2.05831 0.6281,5.73931 -2.0855,7.10728 -3.6789,1.85461 -13.4157,1.39385 -22.3388,-1.05711 z m 28.6878,-20.18591 c -0.8948,-2.33171 1.7197,-4.16344 8.6509,-6.06106 3.025,-0.82817 10.675,-3.26656 17,-5.41864 6.325,-2.15208 15.55,-5.08275 20.5,-6.51259 4.95,-1.42985 11.5432,-3.73818 14.6514,-5.12963 6.3624,-2.84817 9.2109,-2.78315 9.6427,0.2201 0.4525,3.14744 -2.456,4.95393 -12.7941,7.94645 -5.225,1.51247 -11.75,3.62909 -14.5,4.70361 -8.4283,3.29324 -32.7232,10.57574 -37.7384,11.31229 -3.9922,0.58629 -4.8447,0.41925 -5.4125,-1.06053 z"
     id="path2995"
     inkscape:connector-curvature="0" />
</svg>
